<svg width="145" height="27" viewBox="0 0 145 27" fill="none" xmlns="http://www.w3.org/2000/svg">
<path d="M16.96 21.41V26H0.1V5H16.57V9.59H5.98V13.13H15.31V17.57H5.98V21.41H16.96ZM30.5763 9.47C32.5963 9.47 34.2163 10.07 35.4363 11.27C36.6763 12.47 37.2963 14.28 37.2963 16.7V26H31.5963V17.63C31.5963 15.41 30.7063 14.3 28.9263 14.3C27.9463 14.3 27.1563 14.62 26.5563 15.26C25.9763 15.9 25.6863 16.86 25.6863 18.14V26H19.9863V9.74H25.4163V11.51C26.0563 10.85 26.8163 10.35 27.6963 10.01C28.5763 9.65 29.5363 9.47 30.5763 9.47ZM52.0949 25.34C51.6149 25.64 51.0249 25.87 50.3249 26.03C49.6449 26.19 48.9149 26.27 48.1349 26.27C46.0149 26.27 44.3849 25.75 43.2449 24.71C42.1049 23.67 41.5349 22.12 41.5349 20.06V14.6H39.1649V10.34H41.5349V6.11H47.2349V10.34H50.9549V14.6H47.2349V20C47.2349 20.58 47.3849 21.04 47.6849 21.38C48.0049 21.7 48.4249 21.86 48.9449 21.86C49.6049 21.86 50.1849 21.69 50.6849 21.35L52.0949 25.34ZM61.2229 9.47C63.9229 9.47 65.9829 10.09 67.4029 11.33C68.8229 12.55 69.5329 14.43 69.5329 16.97V26H64.2229V23.9C63.4029 25.48 61.8029 26.27 59.4229 26.27C58.1629 26.27 57.0729 26.05 56.1529 25.61C55.2329 25.17 54.5329 24.58 54.0529 23.84C53.5929 23.08 53.3629 22.22 53.3629 21.26C53.3629 19.72 53.9529 18.53 55.1329 17.69C56.3129 16.83 58.1329 16.4 60.5929 16.4H63.8329C63.7329 14.68 62.5829 13.82 60.3829 13.82C59.6029 13.82 58.8129 13.95 58.0129 14.21C57.2129 14.45 56.5329 14.79 55.9729 15.23L54.0529 11.36C54.9529 10.76 56.0429 10.3 57.3229 9.98C58.6229 9.64 59.9229 9.47 61.2229 9.47ZM61.0129 22.67C61.6729 22.67 62.2529 22.51 62.7529 22.19C63.2529 21.87 63.6129 21.4 63.8329 20.78V19.37H61.3729C59.7129 19.37 58.8829 19.92 58.8829 21.02C58.8829 21.52 59.0729 21.92 59.4529 22.22C59.8329 22.52 60.3529 22.67 61.0129 22.67ZM84.3508 25.34C83.8708 25.64 83.2808 25.87 82.5808 26.03C81.9008 26.19 81.1708 26.27 80.3908 26.27C78.2708 26.27 76.6408 25.75 75.5008 24.71C74.3608 23.67 73.7908 22.12 73.7908 20.06V14.6H71.4208V10.34H73.7908V6.11H79.4908V10.34H83.2108V14.6H79.4908V20C79.4908 20.58 79.6408 21.04 79.9408 21.38C80.2608 21.7 80.6808 21.86 81.2008 21.86C81.8608 21.86 82.4408 21.69 82.9408 21.35L84.3508 25.34ZM86.5488 9.74H92.2488V26H86.5488V9.74ZM89.3988 7.94C88.3588 7.94 87.5188 7.65 86.8788 7.07C86.2388 6.49 85.9188 5.77 85.9188 4.91C85.9188 4.05 86.2388 3.33 86.8788 2.75C87.5188 2.17 88.3588 1.88 89.3988 1.88C90.4388 1.88 91.2788 2.16 91.9188 2.72C92.5588 3.26 92.8788 3.96 92.8788 4.82C92.8788 5.72 92.5588 6.47 91.9188 7.07C91.2788 7.65 90.4388 7.94 89.3988 7.94ZM113.083 9.74L106.363 26H100.483L93.793 9.74H99.643L103.543 19.67L107.653 9.74H113.083ZM130.737 17.9C130.737 17.94 130.707 18.41 130.647 19.31H118.827C119.067 20.15 119.527 20.8 120.207 21.26C120.907 21.7 121.777 21.92 122.817 21.92C123.597 21.92 124.267 21.81 124.827 21.59C125.407 21.37 125.987 21.01 126.567 20.51L129.567 23.63C127.987 25.39 125.677 26.27 122.637 26.27C120.737 26.27 119.067 25.91 117.627 25.19C116.187 24.47 115.067 23.47 114.267 22.19C113.487 20.91 113.097 19.46 113.097 17.84C113.097 16.24 113.477 14.81 114.237 13.55C115.017 12.27 116.087 11.27 117.447 10.55C118.807 9.83 120.337 9.47 122.037 9.47C123.657 9.47 125.127 9.81 126.447 10.49C127.767 11.15 128.807 12.12 129.567 13.4C130.347 14.66 130.737 16.16 130.737 17.9ZM122.067 13.52C121.187 13.52 120.447 13.77 119.847 14.27C119.267 14.77 118.897 15.45 118.737 16.31H125.397C125.237 15.45 124.857 14.77 124.257 14.27C123.677 13.77 122.947 13.52 122.067 13.52Z" fill="#142940"/>
<path d="M138.5 12.8705C142.09 12.8705 145 9.98935 145 6.43526C145 2.88116 142.09 0 138.5 0C134.91 0 132 2.88116 132 6.43526C132 9.98935 134.91 12.8705 138.5 12.8705Z" fill="#369151"/>
<path opacity="0.8" d="M138.5 11.6732C141.422 11.6732 143.791 9.32815 143.791 6.43536C143.791 3.54258 141.422 1.19751 138.5 1.19751C135.578 1.19751 133.209 3.54258 133.209 6.43536C133.209 9.32815 135.578 11.6732 138.5 11.6732Z" fill="white"/>
<path d="M137.549 9.17593L134.995 6.64665L136.081 5.57091L137.549 7.02444L140.913 3.68835L141.999 4.7641L137.549 9.17593Z" fill="#2FA84F"/>
</svg>
