<?xml version="1.0" standalone="no"?>
<!DOCTYPE svg PUBLIC "-//W3C//DTD SVG 20010904//EN"
 "http://www.w3.org/TR/2001/REC-SVG-20010904/DTD/svg10.dtd">
<svg version="1.0" xmlns="http://www.w3.org/2000/svg"
 width="113.000000pt" height="57.000000pt" viewBox="0 0 113.000000 57.000000"
 preserveAspectRatio="xMidYMid meet">

<g transform="translate(0.000000,57.000000) scale(0.100000,-0.100000)"
fill="#000000" stroke="none">
<path d="M46 514 c-14 -13 -16 -48 -16 -225 0 -126 4 -218 10 -230 10 -18 23
-19 203 -19 137 0 196 3 205 12 17 17 17 449 0 466 -8 8 -67 12 -199 12 -157
0 -190 -3 -203 -16z m284 -24 c48 -25 87 -75 106 -136 18 -62 18 -64 -11 -64
-19 0 -25 5 -25 20 0 28 -44 70 -72 70 -34 0 -65 -26 -73 -60 l-7 -30 -99 0
c-110 0 -109 -1 -88 73 12 45 72 115 114 133 44 19 110 17 155 -6z m-231 -241
c13 -39 38 -58 72 -59 28 0 65 34 71 65 3 18 12 20 106 23 95 2 103 1 99 -15
-3 -10 -8 -32 -12 -50 -9 -47 -59 -109 -104 -133 -44 -22 -104 -26 -148 -9
-63 23 -132 118 -133 182 0 40 35 37 49 -4z"/>
<path d="M219 383 c-13 -16 -12 -17 4 -4 16 13 21 21 13 21 -2 0 -10 -8 -17
-17z"/>
<path d="M259 183 l-24 -28 28 24 c25 23 32 31 24 31 -2 0 -14 -12 -28 -27z"/>
<path d="M100 196 c0 -2 8 -10 18 -17 15 -13 16 -12 3 4 -13 16 -21 21 -21 13z"/>
<path d="M90 177 c0 -2 15 -16 33 -33 l32 -29 -29 33 c-28 30 -36 37 -36 29z"/>
<path d="M319 153 l-24 -28 28 24 c15 14 27 26 27 28 0 8 -8 1 -31 -24z"/>
<path d="M604 482 c-12 -8 -84 -203 -84 -228 0 -25 37 -16 44 11 6 22 11 25
56 25 45 0 50 -3 56 -25 7 -27 44 -36 44 -10 0 20 -68 206 -81 222 -13 15 -19
16 -35 5z m30 -89 c4 -16 9 -36 12 -45 4 -14 -1 -18 -25 -18 -35 0 -35 -1 -19
51 13 46 23 49 32 12z"/>
<path d="M747 483 c-4 -3 -7 -60 -7 -125 0 -108 2 -119 18 -116 12 2 18 15 20
46 3 39 5 42 32 42 46 0 77 17 88 48 13 38 4 79 -21 97 -22 15 -118 21 -130 8z
m101 -45 c29 -29 2 -68 -47 -68 -18 0 -21 6 -21 40 0 37 2 40 28 40 15 0 33
-5 40 -12z"/>
<path d="M924 477 c-2 -7 -3 -62 -2 -123 3 -94 5 -109 21 -112 14 -3 17 4 17
42 l0 46 40 0 c80 0 119 82 65 135 -20 21 -34 25 -80 25 -37 0 -57 -4 -61 -13z
m110 -43 c20 -20 20 -29 0 -49 -24 -24 -68 -16 -72 13 -2 13 -1 30 2 38 7 19
51 18 70 -2z"/>
<path d="M600 190 c0 -5 5 -10 10 -10 6 0 10 5 10 10 0 6 -4 10 -10 10 -5 0
-10 -4 -10 -10z"/>
<path d="M532 158 c-18 -18 -15 -27 14 -38 14 -6 22 -15 18 -21 -4 -8 -9 -8
-17 0 -13 13 -27 14 -27 2 0 -16 40 -23 55 -11 21 18 18 29 -10 40 -30 11 -33
25 -4 17 13 -3 19 -1 16 6 -5 17 -30 20 -45 5z"/>
<path d="M648 163 c-20 -5 -26 -67 -8 -78 6 -4 10 8 10 29 0 25 4 36 15 36 10
0 15 -10 15 -29 0 -17 5 -33 10 -36 14 -9 13 58 -2 73 -7 7 -14 11 -17 11 -4
-1 -14 -3 -23 -6z"/>
<path d="M727 164 c-12 -13 -7 -24 8 -18 8 4 15 2 15 -4 0 -5 -9 -12 -21 -15
-32 -8 -21 -42 14 -42 27 -1 28 1 25 39 -3 39 -23 58 -41 40z m33 -48 c0 -2
-7 -9 -15 -16 -12 -10 -15 -10 -15 4 0 9 7 16 15 16 8 0 15 -2 15 -4z"/>
<path d="M797 162 c-12 -2 -17 -14 -17 -37 0 -44 18 -55 22 -13 2 22 9 34 21
36 15 3 18 -2 17 -25 -3 -44 2 -52 9 -14 9 48 31 53 31 6 0 -21 4 -34 10 -30
6 3 10 20 10 36 0 20 4 29 13 26 6 -2 12 -16 12 -30 1 -14 4 -30 9 -34 4 -4 6
12 4 37 l-3 44 -61 1 c-33 0 -68 -1 -77 -3z"/>
<path d="M967 164 c-13 -14 -7 -22 13 -17 29 8 25 -6 -6 -17 -35 -14 -29 -45
9 -46 27 -1 28 1 25 40 -3 39 -23 58 -41 40z m33 -54 c0 -5 -7 -10 -15 -10 -8
0 -15 5 -15 10 0 6 7 10 15 10 8 0 15 -4 15 -10z"/>
<path d="M1037 164 c-14 -15 -6 -42 14 -47 12 -3 18 -10 14 -17 -5 -8 -11 -8
-21 1 -9 7 -14 8 -14 1 0 -16 18 -24 40 -17 28 9 25 34 -5 45 -30 11 -33 25
-4 17 13 -3 19 -1 16 6 -4 14 -30 21 -40 11z"/>
<path d="M600 119 c0 -24 4 -38 10 -34 6 3 10 22 10 41 0 19 -4 34 -10 34 -5
0 -10 -18 -10 -41z"/>
</g>
</svg>
