<svg id="svg" version="1.1" xmlns="http://www.w3.org/2000/svg" xmlns:xlink="http://www.w3.org/1999/xlink" width="400" height="373.4123624047417" viewBox="0, 0, 400,373.4123624047417"><g id="svgg"><path id="path0" d="M4.276 64.817 C 4.322 129.119,4.256 124.434,5.150 126.418 C 5.276 126.698,5.481 127.345,5.605 127.858 C 5.730 128.370,5.876 128.827,5.930 128.874 C 5.984 128.920,6.127 129.301,6.248 129.721 C 6.369 130.140,6.566 130.711,6.687 130.991 C 7.020 131.761,8.298 135.116,8.298 135.221 C 8.298 135.271,8.442 135.636,8.618 136.031 C 8.794 136.425,9.059 137.069,9.206 137.461 C 9.354 137.853,9.629 138.520,9.818 138.943 C 10.007 139.366,10.315 140.058,10.504 140.481 C 10.692 140.904,10.973 141.571,11.127 141.963 C 11.281 142.355,11.457 142.714,11.518 142.760 C 11.579 142.807,11.770 143.245,11.944 143.734 C 12.118 144.223,12.315 144.623,12.382 144.623 C 12.450 144.623,12.555 144.851,12.616 145.129 C 12.677 145.408,12.798 145.679,12.883 145.732 C 12.969 145.785,13.040 145.970,13.040 146.143 C 13.040 146.316,13.105 146.483,13.185 146.514 C 13.265 146.545,13.701 147.333,14.155 148.264 C 14.608 149.196,15.534 150.971,16.211 152.209 C 16.889 153.447,17.443 154.527,17.443 154.608 C 17.443 154.689,17.509 154.781,17.591 154.812 C 17.672 154.843,17.942 155.250,18.191 155.715 C 18.814 156.882,19.605 158.207,20.515 159.610 C 20.937 160.262,21.693 161.444,22.195 162.235 C 22.697 163.027,23.205 163.776,23.324 163.900 C 23.444 164.023,23.628 164.285,23.733 164.482 C 23.838 164.678,23.992 164.920,24.074 165.019 C 24.157 165.118,24.702 165.847,25.284 166.638 C 27.120 169.133,29.287 171.897,29.732 172.312 C 29.832 172.405,30.363 173.014,30.912 173.666 C 32.936 176.068,38.147 181.162,40.390 182.929 C 40.997 183.408,42.129 184.309,42.368 184.504 C 42.525 184.632,42.851 184.866,43.092 185.024 L 43.531 185.311 43.092 185.539 C 42.182 186.011,36.501 190.206,35.902 190.849 C 35.855 190.899,35.246 191.429,34.547 192.026 C 31.821 194.358,26.444 199.995,24.016 203.066 C 22.669 204.769,21.125 206.789,20.405 207.790 C 20.036 208.302,19.676 208.747,19.605 208.778 C 19.533 208.809,19.475 208.899,19.475 208.978 C 19.475 209.057,18.777 210.175,17.925 211.462 C 16.057 214.282,15.807 214.674,14.980 216.088 C 14.625 216.693,14.217 217.379,14.072 217.612 C 13.629 218.322,12.927 219.570,11.829 221.598 C 10.935 223.250,9.233 226.660,8.323 228.620 C 6.892 231.705,6.435 232.712,6.435 232.783 C 6.435 232.824,6.292 233.180,6.117 233.575 C 5.941 233.970,5.701 234.560,5.583 234.886 C 5.465 235.212,5.269 235.707,5.148 235.986 C 5.027 236.266,4.772 236.914,4.581 237.426 L 4.234 238.357 4.234 302.583 L 4.234 366.808 74.087 366.808 C 124.717 366.808,144.278 366.756,145.170 366.618 C 147.849 366.207,152.443 365.272,152.583 365.111 C 152.629 365.057,153.163 364.874,153.768 364.704 C 154.373 364.533,155.184 364.255,155.570 364.085 C 155.955 363.915,156.489 363.723,156.755 363.659 C 157.022 363.596,157.316 363.488,157.409 363.420 C 157.502 363.352,158.031 363.129,158.585 362.925 C 159.139 362.721,159.787 362.450,160.025 362.323 C 160.263 362.196,161.105 361.780,161.897 361.399 C 162.688 361.018,163.793 360.441,164.352 360.116 C 164.911 359.791,165.673 359.363,166.046 359.164 C 166.418 358.966,166.761 358.748,166.808 358.680 C 166.854 358.612,167.152 358.424,167.469 358.261 C 167.787 358.099,168.129 357.896,168.231 357.811 C 168.392 357.676,170.193 356.387,171.277 355.631 C 171.979 355.141,173.500 353.971,173.841 353.660 C 174.031 353.486,174.602 353.006,175.112 352.592 C 176.926 351.116,180.345 347.768,182.794 345.068 C 185.877 341.669,189.217 337.347,192.036 333.108 C 192.810 331.943,193.661 330.665,193.927 330.266 C 194.194 329.867,194.412 329.499,194.412 329.448 C 194.412 329.397,194.670 328.961,194.986 328.479 C 195.574 327.584,197.285 324.585,198.559 322.214 C 199.431 320.591,199.383 320.591,200.255 322.214 C 201.530 324.585,203.240 327.584,203.828 328.479 C 204.144 328.961,204.403 329.397,204.403 329.448 C 204.403 329.499,204.621 329.867,204.887 330.266 C 205.153 330.665,206.005 331.943,206.779 333.108 C 209.598 337.347,212.937 341.669,216.021 345.068 C 218.470 347.768,221.888 351.116,223.703 352.592 C 224.212 353.006,224.784 353.486,224.973 353.660 C 225.314 353.971,226.835 355.141,227.537 355.631 C 228.621 356.387,230.422 357.676,230.583 357.811 C 230.685 357.896,231.028 358.099,231.345 358.261 C 231.663 358.424,231.960 358.612,232.007 358.680 C 232.053 358.748,232.396 358.966,232.769 359.164 C 233.141 359.363,233.903 359.791,234.462 360.116 C 235.021 360.441,236.126 361.018,236.918 361.399 C 237.710 361.780,238.552 362.196,238.790 362.323 C 239.028 362.450,239.675 362.721,240.229 362.925 C 240.783 363.129,241.312 363.352,241.406 363.420 C 241.499 363.488,241.793 363.596,242.059 363.659 C 242.326 363.723,242.859 363.915,243.245 364.085 C 243.630 364.255,244.441 364.533,245.047 364.704 C 245.652 364.874,246.185 365.057,246.232 365.111 C 246.371 365.272,250.966 366.207,253.644 366.618 C 254.414 366.737,257.726 366.808,262.493 366.808 L 270.110 366.808 270.107 336.791 C 270.106 320.282,270.049 306.689,269.980 306.586 C 269.912 306.482,269.589 306.262,269.263 306.096 C 268.937 305.931,268.468 305.634,268.220 305.438 C 267.972 305.241,267.591 304.950,267.373 304.791 C 265.948 303.749,262.930 300.685,261.812 299.145 C 259.229 295.586,257.861 293.241,255.936 289.077 C 254.998 287.046,254.869 286.741,254.869 286.551 C 254.869 286.448,254.801 286.231,254.719 286.069 C 254.397 285.436,253.974 284.248,253.529 282.727 C 253.383 282.228,253.321 276.306,253.295 260.246 L 253.260 238.442 279.170 238.443 C 304.096 238.444,305.154 238.456,307.028 238.775 C 308.868 239.087,311.653 239.849,312.024 240.141 C 312.117 240.215,312.536 240.411,312.955 240.577 C 313.374 240.744,313.807 240.960,313.917 241.058 C 314.027 241.156,314.587 241.501,315.162 241.825 C 315.736 242.149,316.384 242.579,316.603 242.781 C 316.821 242.983,317.071 243.176,317.159 243.209 C 318.132 243.574,322.761 248.462,323.878 250.305 C 323.971 250.459,324.562 251.357,325.191 252.302 C 325.819 253.247,326.334 254.086,326.334 254.166 C 326.334 254.247,326.506 254.572,326.716 254.887 C 327.175 255.576,329.213 259.840,329.213 260.113 C 329.213 260.218,329.365 260.620,329.551 261.005 C 329.885 261.696,329.890 262.053,329.890 285.553 L 329.890 309.399 313.378 309.399 L 296.867 309.399 296.867 338.103 L 296.867 366.808 345.724 366.808 L 394.581 366.808 394.581 302.583 L 394.581 238.357 394.234 237.426 C 394.043 236.914,393.788 236.266,393.667 235.986 C 393.545 235.707,393.350 235.212,393.231 234.886 C 393.113 234.560,392.873 233.970,392.698 233.575 C 392.523 233.180,392.379 232.824,392.379 232.783 C 392.379 232.712,391.923 231.705,390.491 228.620 C 389.582 226.660,387.879 223.250,386.985 221.598 C 385.887 219.570,385.185 218.322,384.743 217.612 C 384.598 217.379,384.189 216.693,383.835 216.088 C 383.008 214.674,382.757 214.282,380.890 211.462 C 380.037 210.175,379.340 209.057,379.340 208.978 C 379.340 208.899,379.281 208.809,379.210 208.778 C 379.138 208.747,378.778 208.302,378.410 207.790 C 377.689 206.789,376.145 204.769,374.799 203.066 C 372.371 199.995,366.994 194.358,364.268 192.026 C 363.569 191.429,362.959 190.899,362.913 190.849 C 362.313 190.206,356.633 186.011,355.723 185.539 L 355.284 185.311 355.723 185.024 C 355.964 184.866,356.290 184.632,356.446 184.504 C 356.686 184.309,357.818 183.408,358.425 182.929 C 360.668 181.162,365.879 176.068,367.903 173.666 C 368.452 173.014,368.983 172.405,369.083 172.312 C 369.528 171.897,371.695 169.133,373.530 166.638 C 374.113 165.847,374.657 165.118,374.740 165.019 C 374.823 164.920,374.977 164.678,375.082 164.482 C 375.187 164.285,375.371 164.023,375.490 163.900 C 375.610 163.776,376.118 163.027,376.619 162.235 C 377.121 161.444,377.877 160.262,378.300 159.610 C 379.210 158.207,380.000 156.882,380.624 155.715 C 380.873 155.250,381.143 154.843,381.224 154.812 C 381.305 154.781,381.372 154.689,381.372 154.608 C 381.372 154.527,381.926 153.447,382.603 152.209 C 383.281 150.971,384.206 149.196,384.660 148.264 C 385.113 147.333,385.550 146.545,385.630 146.514 C 385.709 146.483,385.775 146.316,385.775 146.143 C 385.775 145.970,385.845 145.785,385.931 145.732 C 386.017 145.679,386.137 145.408,386.199 145.129 C 386.260 144.851,386.365 144.623,386.432 144.623 C 386.500 144.623,386.697 144.223,386.870 143.734 C 387.044 143.245,387.236 142.807,387.297 142.760 C 387.357 142.714,387.533 142.355,387.687 141.963 C 387.842 141.571,388.131 140.885,388.331 140.439 C 389.198 138.499,389.354 138.135,389.608 137.461 C 389.756 137.069,390.021 136.425,390.197 136.031 C 390.373 135.636,390.517 135.271,390.517 135.221 C 390.517 135.116,391.794 131.761,392.127 130.991 C 392.248 130.711,392.446 130.140,392.567 129.721 C 392.687 129.301,392.831 128.920,392.885 128.874 C 392.939 128.827,393.085 128.370,393.209 127.858 C 393.333 127.345,393.538 126.698,393.664 126.418 C 394.559 124.434,394.492 129.118,394.539 64.818 L 394.582 5.758 345.724 5.758 L 296.867 5.758 296.867 34.378 L 296.867 62.997 313.378 62.997 L 329.890 62.997 329.890 84.670 C 329.890 106.274,329.889 106.347,329.531 107.490 C 328.999 109.190,328.372 110.897,327.920 111.871 C 327.699 112.346,327.519 112.787,327.519 112.850 C 327.519 112.914,327.252 113.516,326.926 114.188 C 326.600 114.860,326.334 115.499,326.334 115.608 C 326.334 115.717,326.276 115.831,326.207 115.862 C 326.137 115.893,325.708 116.643,325.253 117.528 C 324.799 118.412,324.323 119.257,324.195 119.404 C 324.067 119.551,323.963 119.732,323.963 119.807 C 323.963 120.121,321.829 123.091,320.187 125.064 C 317.760 127.977,313.796 131.085,311.346 131.994 C 310.881 132.167,310.423 132.366,310.330 132.436 C 310.053 132.645,307.894 133.237,306.374 133.521 C 305.131 133.753,301.804 133.785,279.067 133.785 L 253.175 133.785 253.175 110.181 L 253.175 86.577 253.612 85.414 C 254.314 83.544,255.722 80.565,256.562 79.170 C 256.843 78.704,257.224 78.042,257.409 77.698 C 259.218 74.330,264.317 68.577,266.685 67.231 C 266.931 67.091,267.273 66.853,267.446 66.701 C 267.619 66.549,268.246 66.178,268.840 65.876 C 269.434 65.575,269.963 65.217,270.015 65.080 C 270.067 64.944,270.110 51.538,270.110 35.288 L 270.110 5.744 260.838 5.809 C 252.320 5.868,251.408 5.902,249.619 6.228 C 246.652 6.770,244.122 7.344,244.059 7.490 C 244.028 7.562,243.882 7.621,243.735 7.621 C 243.431 7.621,241.747 8.094,241.236 8.323 C 241.050 8.406,240.402 8.655,239.797 8.876 C 236.778 9.975,236.319 10.174,233.291 11.700 C 230.363 13.175,228.895 14.028,226.789 15.478 C 225.829 16.140,224.771 16.844,224.440 17.043 C 224.108 17.243,223.788 17.471,223.730 17.551 C 223.672 17.631,223.022 18.152,222.287 18.708 C 221.551 19.264,220.865 19.798,220.763 19.894 C 220.660 19.991,220.309 20.288,219.983 20.554 C 218.971 21.382,216.772 23.402,215.600 24.583 C 211.827 28.381,209.966 30.485,206.566 34.801 C 205.925 35.615,203.748 38.655,202.929 39.881 C 201.268 42.368,200.989 42.795,199.992 44.388 L 199.391 45.347 199.065 44.816 C 197.779 42.724,197.619 42.475,195.886 39.881 C 195.067 38.655,192.890 35.615,192.248 34.801 C 188.848 30.485,186.987 28.381,183.215 24.583 C 182.042 23.402,179.844 21.382,178.831 20.554 C 178.506 20.288,178.155 19.991,178.052 19.894 C 177.949 19.798,177.263 19.264,176.528 18.708 C 175.792 18.152,175.143 17.631,175.084 17.551 C 175.026 17.471,174.707 17.243,174.375 17.043 C 174.043 16.844,172.986 16.140,172.026 15.478 C 169.920 14.028,168.452 13.175,165.524 11.700 C 162.495 10.174,162.036 9.975,159.018 8.876 C 158.412 8.655,157.765 8.406,157.578 8.323 C 157.068 8.094,155.384 7.621,155.080 7.621 C 154.933 7.621,154.787 7.562,154.756 7.490 C 154.694 7.346,152.247 6.789,149.196 6.222 L 147.248 5.861 75.740 5.808 L 4.233 5.756 4.276 64.817 M139.966 26.735 C 140.991 26.942,142.134 27.171,142.506 27.244 C 143.820 27.500,147.163 28.507,147.163 28.647 C 147.163 28.725,147.290 28.789,147.445 28.789 C 147.853 28.789,149.609 29.354,149.675 29.506 C 149.706 29.578,149.841 29.636,149.974 29.636 C 150.107 29.636,150.349 29.707,150.510 29.793 C 150.672 29.880,151.414 30.238,152.159 30.588 C 153.378 31.162,155.737 32.448,157.324 33.404 C 157.939 33.774,160.731 35.730,160.881 35.895 C 160.927 35.946,161.270 36.214,161.643 36.489 C 162.015 36.765,162.402 37.069,162.502 37.166 C 162.602 37.262,162.979 37.570,163.340 37.849 C 165.903 39.831,172.111 46.432,173.955 49.135 C 174.378 49.755,175.306 51.007,175.444 51.143 C 175.491 51.190,175.605 51.356,175.699 51.514 C 175.792 51.671,176.446 52.661,177.153 53.715 C 179.640 57.421,181.415 60.490,183.499 64.691 C 184.764 67.240,185.229 68.268,185.359 68.798 C 185.421 69.054,185.541 69.263,185.624 69.263 C 185.707 69.263,185.775 69.337,185.775 69.428 C 185.775 69.586,186.485 71.275,186.776 71.809 C 186.853 71.952,186.975 72.332,187.046 72.653 C 187.116 72.975,187.284 73.406,187.418 73.611 C 188.161 74.744,188.142 73.675,188.144 113.506 L 188.146 151.228 199.407 151.228 L 210.669 151.228 210.669 113.447 C 210.669 72.629,210.619 75.002,211.519 73.236 C 211.704 72.874,211.854 72.479,211.854 72.358 C 211.854 72.237,211.928 72.005,212.018 71.844 C 212.108 71.682,212.345 71.169,212.545 70.703 C 212.954 69.751,213.548 68.400,214.105 67.160 C 215.296 64.508,217.750 59.903,219.331 57.355 C 219.783 56.626,220.152 55.998,220.152 55.957 C 220.152 55.875,223.235 51.274,223.378 51.143 C 223.429 51.097,223.941 50.411,224.515 49.619 C 225.569 48.166,225.742 47.948,227.443 45.916 C 229.699 43.221,233.489 39.412,235.478 37.841 C 235.944 37.473,236.363 37.130,236.410 37.078 C 236.456 37.027,236.799 36.760,237.172 36.486 C 237.544 36.211,237.981 35.868,238.142 35.723 C 238.421 35.472,240.747 33.887,241.998 33.094 C 243.067 32.418,245.275 31.223,246.655 30.575 C 247.401 30.225,248.142 29.871,248.304 29.787 C 248.466 29.704,248.714 29.636,248.855 29.636 C 248.996 29.636,249.111 29.572,249.111 29.494 C 249.111 29.389,250.874 28.789,251.183 28.789 C 251.208 28.789,251.210 34.552,251.189 41.595 L 251.150 54.401 250.749 54.762 C 250.528 54.960,250.165 55.280,249.941 55.472 C 248.932 56.337,245.212 60.535,244.160 61.996 C 243.998 62.221,243.617 62.748,243.314 63.167 C 242.655 64.078,240.863 66.796,240.395 67.594 C 238.545 70.751,236.921 73.841,236.914 74.216 C 236.912 74.333,236.761 74.619,236.579 74.852 C 236.397 75.085,236.246 75.337,236.244 75.413 C 236.242 75.489,236.050 75.967,235.817 76.476 C 235.584 76.986,235.394 77.445,235.394 77.498 C 235.394 77.551,235.272 77.873,235.122 78.213 C 234.811 78.923,234.658 79.303,234.393 80.017 C 234.257 80.385,234.217 90.342,234.249 116.088 L 234.293 151.651 273.158 151.645 C 300.397 151.641,312.353 151.584,313.124 151.455 C 315.656 151.031,316.681 150.808,316.681 150.683 C 316.681 150.610,316.792 150.550,316.929 150.550 C 317.208 150.550,318.537 150.132,319.306 149.801 C 321.091 149.033,322.790 148.202,323.395 147.800 C 323.781 147.543,324.144 147.333,324.203 147.333 C 324.338 147.333,325.670 146.469,325.965 146.190 C 326.088 146.073,326.245 145.978,326.314 145.978 C 326.383 145.978,326.588 145.845,326.769 145.682 C 326.951 145.519,327.822 144.800,328.706 144.086 C 331.238 142.038,335.072 137.969,336.816 135.478 C 340.300 130.502,342.769 126.242,344.620 122.015 C 344.824 121.550,345.132 120.864,345.305 120.491 C 345.634 119.779,346.164 118.470,346.641 117.189 C 346.797 116.770,347.048 116.160,347.198 115.834 C 347.348 115.508,347.606 114.784,347.772 114.225 C 347.938 113.666,348.119 113.171,348.174 113.124 C 348.865 112.541,348.869 112.309,348.820 77.985 L 348.772 45.301 331.541 45.257 L 314.310 45.214 314.310 35.915 C 314.310 30.800,314.271 26.514,314.223 26.390 C 314.151 26.202,319.066 26.171,343.268 26.206 L 372.399 26.247 372.397 72.162 C 372.395 120.473,372.415 119.060,371.724 120.381 C 371.644 120.535,371.451 121.118,371.297 121.677 C 371.030 122.639,370.825 123.211,370.535 123.799 C 370.465 123.942,370.350 124.323,370.280 124.646 C 370.210 124.969,370.020 125.538,369.858 125.910 C 369.696 126.283,369.429 126.931,369.263 127.350 C 369.098 127.769,368.834 128.417,368.676 128.789 C 368.518 129.162,368.175 130.000,367.915 130.652 C 367.413 131.908,367.232 132.318,366.140 134.677 C 365.762 135.494,365.453 136.237,365.453 136.328 C 365.453 136.420,365.377 136.494,365.284 136.494 C 365.191 136.494,365.114 136.569,365.114 136.661 C 365.114 137.675,358.403 149.263,356.189 152.070 C 356.077 152.212,355.651 152.765,355.241 153.299 C 354.831 153.833,354.434 154.214,354.359 154.146 C 354.283 154.078,354.282 154.126,354.355 154.253 C 354.429 154.379,354.417 154.532,354.330 154.591 C 354.243 154.651,354.056 154.869,353.914 155.077 C 351.105 159.193,342.060 167.445,338.176 169.436 C 337.857 169.600,337.557 169.783,337.511 169.842 C 337.464 169.901,337.102 170.093,336.706 170.267 C 336.310 170.442,335.986 170.650,335.986 170.729 C 335.986 170.808,335.913 170.872,335.823 170.872 C 335.733 170.872,334.838 171.275,333.833 171.768 C 332.829 172.261,331.626 172.800,331.160 172.967 C 330.694 173.133,330.161 173.333,329.975 173.410 C 329.368 173.663,327.885 174.090,327.614 174.090 C 327.469 174.090,327.350 174.153,327.350 174.229 C 327.350 174.355,326.849 174.480,324.471 174.946 C 324.052 175.028,323.099 175.228,322.354 175.389 C 321.094 175.661,318.077 175.686,279.178 175.736 C 246.271 175.778,237.329 175.834,237.225 175.998 C 237.071 176.241,237.037 196.115,237.190 196.515 C 237.283 196.758,241.123 196.783,278.977 196.784 C 306.282 196.785,321.186 196.845,322.185 196.958 C 323.785 197.140,328.548 198.054,329.128 198.291 C 329.707 198.527,330.625 198.789,331.287 198.908 C 331.636 198.970,331.922 199.071,331.922 199.131 C 331.922 199.191,332.246 199.341,332.642 199.464 C 333.335 199.679,333.567 199.772,335.055 200.428 C 336.994 201.282,339.667 202.684,341.321 203.715 C 347.203 207.381,353.200 213.023,358.254 219.644 C 358.716 220.250,359.153 220.771,359.225 220.802 C 359.298 220.833,359.356 220.927,359.356 221.012 C 359.356 221.096,359.624 221.528,359.951 221.971 C 360.279 222.415,360.602 222.855,360.671 222.950 C 362.984 226.141,366.899 233.065,369.000 237.680 C 369.297 238.332,369.685 239.170,369.863 239.543 C 370.772 241.449,371.535 243.428,371.544 243.903 C 371.547 244.066,371.616 244.200,371.697 244.200 C 372.406 244.200,372.394 243.336,372.397 296.241 L 372.400 346.319 343.521 346.319 L 314.643 346.319 314.603 336.835 L 314.564 327.351 331.668 327.308 L 348.772 327.265 348.818 291.533 C 348.867 253.246,348.907 255.388,348.106 253.853 C 347.984 253.620,347.788 253.124,347.669 252.752 C 347.551 252.379,347.281 251.732,347.070 251.312 C 346.859 250.893,346.262 249.668,345.744 248.589 C 344.688 246.393,343.157 243.614,342.158 242.083 C 341.794 241.524,341.407 240.901,341.298 240.699 C 341.015 240.172,339.684 238.364,338.038 236.269 C 331.765 228.289,323.516 222.753,315.919 221.425 C 315.080 221.279,313.971 221.085,313.453 220.994 C 312.862 220.891,297.927 220.830,273.360 220.830 L 234.208 220.830 234.208 253.673 C 234.208 275.386,234.266 286.552,234.378 286.622 C 234.471 286.679,234.547 286.935,234.547 287.190 C 234.547 287.446,234.608 287.727,234.682 287.815 C 234.757 287.904,234.955 288.395,235.123 288.908 C 235.575 290.287,236.246 292.118,236.582 292.887 C 236.745 293.260,236.996 293.908,237.140 294.327 C 237.284 294.746,237.598 295.470,237.837 295.936 C 238.076 296.401,238.272 296.837,238.272 296.903 C 238.275 297.422,242.392 305.137,243.582 306.856 C 243.874 307.276,244.256 307.887,244.431 308.213 C 244.607 308.539,244.801 308.844,244.862 308.891 C 244.923 308.937,245.340 309.495,245.789 310.130 C 246.811 311.578,248.724 313.959,249.761 315.076 C 250.195 315.543,250.684 316.083,250.848 316.276 C 251.162 316.645,251.412 343.268,251.101 343.268 C 251.031 343.268,250.974 343.192,250.974 343.099 C 250.974 343.006,250.883 342.930,250.772 342.930 C 249.948 342.930,243.024 338.951,241.716 337.726 C 241.494 337.519,241.280 337.366,241.239 337.387 C 241.029 337.496,236.356 333.455,234.547 331.601 C 232.196 329.192,227.942 324.206,227.942 323.860 C 227.942 323.803,227.648 323.402,227.287 322.970 C 226.653 322.210,225.374 320.355,224.604 319.080 C 224.399 318.738,224.151 318.345,224.054 318.205 C 222.258 315.619,218.842 309.314,216.714 304.657 C 215.897 302.871,214.603 299.828,214.480 299.407 C 214.412 299.174,214.256 298.755,214.132 298.476 C 213.617 297.309,213.378 296.639,213.378 296.352 C 213.378 296.185,213.319 296.023,213.247 295.992 C 213.174 295.961,212.846 295.174,212.517 294.242 C 212.188 293.311,211.744 292.053,211.530 291.448 C 211.316 290.843,211.058 290.042,210.956 289.670 C 210.825 289.194,210.742 278.922,210.677 255.207 L 210.584 221.423 199.407 221.423 L 188.230 221.423 188.141 255.207 C 188.077 279.198,187.997 289.164,187.864 289.585 C 187.349 291.214,186.597 293.424,186.482 293.649 C 186.410 293.789,186.203 294.380,186.021 294.962 C 185.839 295.544,185.633 296.020,185.563 296.020 C 185.493 296.020,185.436 296.163,185.436 296.338 C 185.436 296.637,185.203 297.297,184.682 298.476 C 184.559 298.755,184.402 299.174,184.334 299.407 C 184.266 299.640,184.029 300.233,183.807 300.725 C 183.585 301.217,183.404 301.649,183.404 301.686 C 183.404 301.723,183.130 302.350,182.795 303.078 C 182.461 303.807,182.072 304.670,181.931 304.996 C 181.404 306.217,178.502 311.911,177.667 313.360 C 177.190 314.189,176.799 314.899,176.799 314.939 C 176.799 314.978,176.590 315.331,176.334 315.722 C 175.738 316.631,175.528 316.968,175.102 317.697 C 174.776 318.254,174.567 318.580,173.344 320.426 C 167.034 329.958,158.398 337.975,150.127 341.982 C 147.973 343.025,147.008 343.435,146.228 343.637 C 145.764 343.757,145.347 343.902,145.301 343.959 C 145.112 344.189,142.292 344.976,139.543 345.565 C 136.098 346.303,135.660 346.308,79.973 346.314 L 26.415 346.319 26.417 296.161 C 26.420 242.966,26.403 244.200,27.127 244.200 C 27.203 244.200,27.268 244.066,27.271 243.903 C 27.279 243.428,28.042 241.449,28.952 239.543 C 29.129 239.170,29.515 238.332,29.809 237.680 C 31.799 233.269,35.836 226.133,38.143 222.950 C 38.212 222.855,38.536 222.415,38.863 221.971 C 39.190 221.528,39.458 221.096,39.458 221.012 C 39.458 220.927,39.517 220.833,39.589 220.802 C 39.661 220.771,40.098 220.250,40.560 219.644 C 44.930 213.920,49.831 209.070,54.784 205.569 C 57.635 203.554,58.161 203.225,59.949 202.343 C 60.368 202.136,60.749 201.920,60.796 201.863 C 60.879 201.762,61.366 201.526,63.421 200.591 C 65.070 199.841,65.415 199.699,66.173 199.464 C 66.569 199.341,66.892 199.191,66.892 199.131 C 66.892 199.071,67.178 198.970,67.528 198.908 C 68.219 198.784,69.152 198.514,69.687 198.282 C 70.015 198.140,70.490 198.037,73.158 197.524 C 73.857 197.390,74.809 197.193,75.275 197.086 C 75.894 196.944,87.568 196.865,118.713 196.795 L 161.304 196.698 161.304 186.283 L 161.304 175.868 119.560 175.775 C 80.834 175.688,77.717 175.660,76.461 175.389 C 75.715 175.227,74.763 175.028,74.344 174.946 C 71.966 174.480,71.465 174.355,71.465 174.229 C 71.465 174.153,71.346 174.090,71.200 174.090 C 70.929 174.090,69.447 173.663,68.840 173.410 C 68.654 173.333,68.120 173.133,67.655 172.967 C 67.189 172.800,65.986 172.261,64.981 171.768 C 63.977 171.275,63.081 170.872,62.991 170.872 C 62.902 170.872,62.828 170.808,62.828 170.729 C 62.828 170.650,62.504 170.442,62.108 170.267 C 61.713 170.093,61.351 169.901,61.304 169.842 C 61.257 169.783,60.958 169.600,60.639 169.436 C 56.755 167.445,47.710 159.193,44.900 155.077 C 44.759 154.869,44.571 154.651,44.484 154.591 C 44.397 154.532,44.386 154.379,44.459 154.253 C 44.533 154.126,44.531 154.078,44.456 154.146 C 44.380 154.214,43.983 153.833,43.574 153.299 C 43.164 152.765,42.737 152.212,42.625 152.070 C 40.412 149.263,33.700 137.675,33.700 136.661 C 33.700 136.569,33.624 136.494,33.531 136.494 C 33.438 136.494,33.362 136.420,33.362 136.328 C 33.362 136.237,33.052 135.494,32.674 134.677 C 31.583 132.318,31.402 131.908,30.900 130.652 C 30.639 130.000,30.297 129.162,30.139 128.789 C 29.981 128.417,29.716 127.769,29.551 127.350 C 29.386 126.931,29.118 126.283,28.956 125.910 C 28.794 125.538,28.605 124.969,28.535 124.646 C 28.465 124.323,28.350 123.942,28.279 123.799 C 27.989 123.211,27.784 122.639,27.518 121.677 C 27.363 121.118,27.171 120.535,27.091 120.381 C 26.400 119.060,26.420 120.471,26.418 72.205 C 26.418 46.976,26.417 26.296,26.418 26.249 C 26.418 26.202,51.547 26.208,82.261 26.261 L 138.103 26.357 139.966 26.735 M50.071 45.329 C 49.772 45.627,49.949 110.749,50.251 111.911 C 50.413 112.532,50.589 113.078,50.643 113.124 C 50.697 113.171,50.877 113.666,51.042 114.225 C 51.208 114.784,51.467 115.508,51.617 115.834 C 51.767 116.160,52.017 116.770,52.173 117.189 C 52.651 118.470,53.181 119.779,53.510 120.491 C 53.682 120.864,53.990 121.550,54.194 122.015 C 56.045 126.242,58.515 130.502,61.999 135.478 C 63.742 137.969,67.576 142.038,70.108 144.086 C 70.992 144.800,71.864 145.519,72.045 145.682 C 72.227 145.845,72.432 145.978,72.501 145.978 C 72.570 145.978,72.727 146.073,72.850 146.190 C 73.145 146.469,74.476 147.333,74.612 147.333 C 74.670 147.333,75.034 147.543,75.420 147.800 C 76.024 148.202,77.723 149.033,79.509 149.801 C 80.278 150.132,81.606 150.550,81.886 150.550 C 82.022 150.550,82.134 150.610,82.134 150.683 C 82.134 150.808,83.159 151.031,85.690 151.455 C 86.462 151.584,98.417 151.641,125.656 151.645 L 164.522 151.651 164.571 116.173 C 164.622 79.210,164.640 80.233,163.918 78.662 C 163.746 78.290,163.453 77.589,163.266 77.106 C 162.885 76.122,161.701 73.512,161.282 72.735 C 161.132 72.456,160.780 71.808,160.501 71.296 C 160.221 70.783,159.726 69.869,159.400 69.263 C 158.604 67.784,155.505 62.996,154.730 62.048 C 150.608 57.003,148.793 55.155,145.036 52.178 C 144.666 51.885,141.599 49.860,141.048 49.545 C 138.428 48.047,133.821 46.315,131.583 45.986 C 131.164 45.924,130.669 45.810,130.483 45.732 C 129.378 45.267,125.184 45.216,88.197 45.216 C 67.290 45.216,50.133 45.267,50.071 45.329 M122.963 63.274 C 123.094 63.379,123.467 63.506,123.793 63.556 C 124.819 63.713,126.073 64.043,126.240 64.201 C 126.329 64.284,126.511 64.352,126.646 64.352 C 127.161 64.352,130.699 66.189,131.534 66.890 C 131.646 66.985,131.790 67.062,131.854 67.062 C 132.493 67.062,136.871 71.351,138.696 73.764 C 139.395 74.688,140.013 75.483,140.070 75.529 C 140.128 75.576,140.224 75.772,140.284 75.965 C 140.344 76.158,140.529 76.463,140.694 76.642 C 140.860 76.822,141.189 77.312,141.426 77.731 C 141.663 78.150,142.035 78.798,142.253 79.170 C 142.813 80.129,143.438 81.424,143.438 81.625 C 143.438 81.719,143.514 81.795,143.607 81.795 C 143.700 81.795,143.776 81.883,143.776 81.990 C 143.776 82.097,143.965 82.573,144.196 83.048 C 144.427 83.523,144.827 84.445,145.085 85.097 L 145.555 86.283 145.598 110.038 L 145.642 133.793 119.180 133.734 C 95.505 133.680,92.611 133.645,91.702 133.401 C 89.423 132.789,88.843 132.606,88.148 132.280 C 87.748 132.092,87.222 131.888,86.979 131.827 C 86.736 131.766,86.537 131.648,86.537 131.565 C 86.537 131.482,86.449 131.414,86.341 131.414 C 86.116 131.414,83.145 129.447,82.388 128.796 C 80.654 127.307,80.087 126.737,78.676 125.064 C 77.813 124.039,76.772 122.705,76.364 122.100 C 75.956 121.494,75.563 120.974,75.491 120.943 C 75.419 120.912,75.360 120.790,75.360 120.672 C 75.360 120.554,75.121 120.128,74.830 119.726 C 74.244 118.916,71.978 114.518,71.975 114.183 C 71.974 114.066,71.912 113.971,71.839 113.971 C 71.765 113.971,71.559 113.533,71.381 112.997 C 71.204 112.462,70.965 111.871,70.852 111.685 C 70.538 111.168,69.645 108.742,69.418 107.790 C 69.308 107.324,69.151 106.871,69.071 106.782 C 68.990 106.694,68.925 96.823,68.925 84.804 L 68.925 62.987 95.825 63.034 C 115.526 63.069,122.789 63.133,122.963 63.274 M188.442 175.966 C 187.956 176.249,187.987 196.347,188.473 196.607 C 188.689 196.723,192.420 196.782,199.407 196.782 C 206.395 196.782,210.126 196.723,210.341 196.607 C 210.660 196.437,210.669 196.143,210.669 186.283 C 210.669 176.422,210.660 176.129,210.341 175.959 C 209.893 175.719,188.854 175.726,188.442 175.966 M85.097 221.032 C 84.632 221.117,83.605 221.301,82.815 221.441 C 81.494 221.676,79.133 222.336,78.323 222.697 C 78.137 222.781,77.223 223.187,76.291 223.600 C 75.360 224.013,74.141 224.615,73.582 224.937 C 73.023 225.259,72.301 225.666,71.977 225.843 C 71.653 226.020,71.311 226.247,71.215 226.347 C 71.120 226.448,70.622 226.825,70.110 227.186 C 68.019 228.657,65.480 230.950,62.978 233.626 C 61.689 235.006,58.017 239.762,57.518 240.699 C 57.410 240.901,56.961 241.622,56.519 242.300 C 56.077 242.978,55.715 243.576,55.715 243.629 C 55.715 243.681,55.573 243.926,55.398 244.174 C 54.710 245.149,51.585 251.504,51.062 252.991 C 50.918 253.402,50.740 253.822,50.668 253.923 C 49.926 254.955,49.953 253.470,49.999 291.533 L 50.042 327.265 87.214 327.318 C 123.603 327.370,127.968 327.322,129.382 326.847 C 129.615 326.768,130.377 326.576,131.075 326.418 C 133.748 325.816,138.087 324.053,139.474 323.004 C 139.762 322.786,140.067 322.608,140.152 322.608 C 140.300 322.608,142.799 320.893,143.545 320.280 C 145.152 318.959,145.955 318.227,147.502 316.677 C 149.410 314.764,151.708 312.049,153.027 310.150 C 153.475 309.504,153.927 308.899,154.031 308.806 C 154.765 308.148,158.457 301.455,160.337 297.375 C 160.616 296.770,161.043 295.848,161.286 295.327 C 161.529 294.805,161.727 294.324,161.727 294.257 C 161.727 294.190,161.918 293.719,162.151 293.210 C 162.384 292.701,162.574 292.203,162.574 292.104 C 162.574 292.004,162.682 291.682,162.815 291.389 C 162.947 291.095,163.255 290.246,163.500 289.500 C 163.744 288.755,164.008 287.993,164.087 287.807 C 164.592 286.612,164.606 285.660,164.606 253.452 L 164.606 220.830 125.275 220.853 C 102.295 220.867,85.592 220.941,85.097 221.032 M145.514 260.297 C 145.487 274.572,145.413 282.262,145.302 282.470 C 145.208 282.645,145.131 282.980,145.131 283.213 C 145.131 283.447,145.062 283.681,144.977 283.733 C 144.892 283.786,144.771 284.133,144.708 284.506 C 144.645 284.878,144.542 285.182,144.480 285.182 C 144.418 285.182,144.266 285.506,144.143 285.902 C 144.020 286.298,143.819 286.850,143.696 287.130 C 143.573 287.409,143.369 287.898,143.243 288.217 C 142.136 291.023,139.502 295.590,136.797 299.393 C 135.431 301.313,130.608 305.727,130.078 305.542 C 129.949 305.497,129.889 305.535,129.946 305.627 C 130.081 305.846,127.591 307.248,126.080 307.804 C 125.428 308.044,124.742 308.308,124.555 308.390 C 124.184 308.554,122.791 308.841,121.084 309.106 C 120.393 309.214,110.477 309.300,94.454 309.339 L 68.925 309.401 68.925 285.629 L 68.925 261.857 69.282 260.946 C 69.791 259.645,69.830 259.555,70.794 257.494 C 71.272 256.470,71.740 255.585,71.833 255.528 C 71.926 255.471,71.999 255.356,71.995 255.273 C 71.992 255.190,72.286 254.582,72.648 253.921 C 73.255 252.815,73.576 252.319,75.265 249.873 C 76.659 247.854,79.986 244.420,81.880 243.047 C 83.350 241.982,83.836 241.656,84.335 241.404 C 84.661 241.239,84.966 241.054,85.013 240.992 C 85.059 240.931,85.478 240.739,85.944 240.566 C 86.410 240.393,86.829 240.203,86.876 240.143 C 87.059 239.908,90.598 238.955,91.956 238.775 C 92.747 238.670,93.427 238.552,93.466 238.513 C 93.505 238.474,105.241 238.442,119.546 238.442 L 145.555 238.442 145.514 260.297 " stroke="none" fill="#046c9c" fill-rule="evenodd"></path><path id="path1" d="" stroke="none" fill="#086c9c" fill-rule="evenodd"></path><path id="path2" d="" stroke="none" fill="#086c9c" fill-rule="evenodd"></path><path id="path3" d="" stroke="none" fill="#086c9c" fill-rule="evenodd"></path><path id="path4" d="" stroke="none" fill="#086c9c" fill-rule="evenodd"></path></g></svg>