<svg width="66" height="66" viewBox="0 0 66 66" fill="none" xmlns="http://www.w3.org/2000/svg">
<rect width="66" height="66" rx="24" fill="#F3DF2E" fill-opacity="0.2"/>
<g clip-path="url(#clip0)">
<path opacity="0.7" d="M33.2002 21.2148L33.9121 19.58L33.2002 17.9453C33.1738 16.9433 32.9014 15.9589 32.418 15.0712C31.9434 14.2187 31.2666 13.4628 30.4053 12.8828C29.4561 12.25 28.6387 11.705 27.6983 11.0722C24.7979 9.13863 20.8867 9.91207 18.9444 12.8125C18.9092 12.8652 18.7686 13.0761 18.7774 13.0673C20.6934 14.3593 24.7276 17.0664 25.8613 17.8222L33.2002 21.2148Z" fill="#F3DF2E"/>
<path d="M30.5547 47.0547C30.0889 48.9092 29.6934 50.5 29.2275 52.3457L31.2139 53.1719L33.2002 52.3457L34.0791 49.7002L33.2002 47.0547L31.873 46.2021L30.5547 47.0547Z" fill="#F3DF2E"/>
<path d="M33.209 41.7637L31.8818 40.6738L30.5547 41.7637C30.0889 43.6182 29.6934 45.209 29.2275 47.0547H33.2002L34.0791 44.4092L33.209 41.7637Z" fill="#F3DF2E"/>
<path opacity="0.7" d="M33.209 52.3545L35.1954 53.3564L37.1817 52.3545C36.7159 50.5 36.3204 48.9092 35.8545 47.0635L34.5274 46.2109L33.2003 47.0635V52.3545H33.209Z" fill="#F3DF2E"/>
<path opacity="0.7" d="M33.209 47.0547H37.1817C36.7159 45.2002 36.3204 43.6094 35.8545 41.7637L34.5274 40.6738L33.2003 41.7637V47.0547H33.209Z" fill="#F3DF2E"/>
<path d="M33.209 36.4729L31.8818 35.5588L30.5547 36.4729C30.0889 38.3274 29.6934 39.9182 29.2275 41.7639H33.2002L34.0791 39.1184L33.209 36.4729Z" fill="#F3DF2E"/>
<path opacity="0.7" d="M33.209 41.7639H37.1817C36.7159 39.9094 36.3204 38.3186 35.8545 36.4729L34.5274 35.5588L33.2003 36.4729V41.7639H33.209Z" fill="#F3DF2E"/>
<path d="M33.209 31.1729L31.8818 30.2061L30.5547 31.1729C30.0889 33.0273 29.6934 34.6182 29.2275 36.4639H33.2002L34.0791 33.8184L33.209 31.1729Z" fill="#F3DF2E"/>
<path opacity="0.7" d="M33.209 36.4727H37.1817C36.7159 34.6182 36.3204 33.0273 35.8545 31.1816L34.5274 30.2148L33.2003 31.1816V36.4727H33.209Z" fill="#F3DF2E"/>
<path d="M33.209 25.8818L31.8818 24.8271L30.5547 25.8818C30.0889 27.7363 29.6934 29.3271 29.2275 31.1729H33.2002L34.0791 28.5273L33.209 25.8818Z" fill="#F3DF2E"/>
<path opacity="0.7" d="M33.209 31.1729H37.1817C36.7159 29.3184 36.3204 27.7275 35.8545 25.8818L34.5274 24.8271L33.2003 25.8818V31.1729H33.209Z" fill="#F3DF2E"/>
<path d="M29.2363 25.8818H33.209L33.9121 23.5527L33.209 21.2236L31.2227 20.9424L29.9834 22.8936C29.7197 23.9395 29.5 24.8359 29.2363 25.8818Z" fill="#F3DF2E"/>
<path opacity="0.7" d="M37.1728 25.8818C36.9091 24.8359 36.6894 23.9395 36.4257 22.8936L35.7929 20.9424L33.2089 21.2236V25.8818H37.1728Z" fill="#F3DF2E"/>
<path opacity="0.7" d="M40.5567 17.8135C42.4727 16.5215 46.5069 13.8145 47.6407 13.0586C47.6055 13.0059 47.4649 12.795 47.4737 12.8037C46.5069 11.3535 45.0391 10.4395 43.4571 10.1231C41.875 9.80667 40.17 10.0967 38.7198 11.0635C37.7706 11.6963 36.9532 12.2412 36.0127 12.8741C35.1426 13.4541 34.4659 14.21 34 15.0625C32.919 17.0313 33.2881 18.7012 33.2178 19.5713V21.2061L40.5567 17.8135Z" fill="#F3DF2E"/>
<path d="M33.209 21.2239C31.8115 18.5256 28.7705 17.1457 25.8613 17.8137C25.3252 17.9367 24.7979 18.1301 24.2969 18.3938L21.9502 19.6155C18.707 21.2942 17.4326 25.2932 19.1201 28.5364C19.9023 28.1145 32.4092 21.6369 33.209 21.2239Z" fill="#F3DF2E"/>
<path d="M18.6455 47.0547C20.1066 47.0547 21.291 45.8703 21.291 44.4092C21.291 42.9481 20.1066 41.7637 18.6455 41.7637C17.1844 41.7637 16 42.9481 16 44.4092C16 45.8703 17.1844 47.0547 18.6455 47.0547Z" fill="#F3DF2E"/>
<path d="M46.4453 40.4365C47.9063 40.4365 49.0908 39.2521 49.0908 37.791C49.0908 36.3299 47.9063 35.1455 46.4453 35.1455C44.9842 35.1455 43.7997 36.3299 43.7997 37.791C43.7997 39.2521 44.9842 40.4365 46.4453 40.4365Z" fill="#F3DF2E"/>
<path d="M19.9727 52.3547V55.0002H33.209L34.0879 53.6731L33.209 52.3459C31.6094 52.3547 21.3878 52.3547 19.9727 52.3547Z" fill="#F3DF2E"/>
<path d="M46.4452 52.3545C45.0302 52.3545 34.8085 52.3545 33.2089 52.3545V55H46.4452C46.4452 54.0771 46.4452 53.2773 46.4452 52.3545Z" fill="#F3DF2E"/>
<path d="M44.4766 19.6064L42.1299 18.3847C41.6201 18.1211 41.0928 17.9277 40.5654 17.8047C37.6562 17.1367 34.6152 18.5166 33.2178 21.2148C34.0176 21.6279 46.5244 28.1054 47.3242 28.5185C48.9853 25.2842 47.7197 21.2939 44.4766 19.6064Z" fill="#F3DF2E"/>
</g>
<defs>
<clipPath id="clip0">
<rect width="33.0908" height="45" fill="white" transform="translate(16 10)"/>
</clipPath>
</defs>
</svg>
