<svg width="45" height="48" viewBox="0 0 45 48" fill="none" xmlns="http://www.w3.org/2000/svg">
<g opacity="0.3" clip-path="url(#clip0)">
<path d="M42.6929 27.0259C40.4871 24.8201 36.8956 24.8201 34.6992 27.0259L24.3394 37.3574C24.1226 37.5743 23.9529 37.8476 23.8681 38.1399L21.6151 45.5585C21.4172 46.2184 21.5869 46.9348 22.0676 47.425C22.4258 47.7926 22.916 47.9906 23.4156 47.9906C23.5853 47.9906 23.755 47.9718 23.9152 47.9246L31.5224 45.8131C31.8335 45.7282 32.1257 45.5586 32.352 45.3323L42.6835 35.0197C44.8987 32.8233 44.8987 29.2318 42.6929 27.0259ZM30.0519 42.3158L26.2247 43.3716L27.3465 39.6858L34.3316 32.7196L36.9993 35.3873L30.0519 42.3158ZM40.0252 32.3614L39.6576 32.729L36.9898 30.0613L37.3575 29.6937C38.0927 28.9584 39.2899 28.9584 40.0252 29.6937C40.7605 30.4289 40.7605 31.6261 40.0252 32.3614Z" fill="white"/>
<path d="M15.5915 47.9529H8.83268C3.95915 47.9529 0 43.9937 0 39.1202V8.83268C0 3.95915 3.95915 0 8.83268 0H29.967C34.8405 0 38.7997 3.95915 38.7997 8.83268V20.8515C38.7997 21.8885 37.9513 22.7368 36.9144 22.7368C35.8775 22.7368 35.0291 21.8885 35.0291 20.8515V8.83268C35.0291 6.04242 32.7573 3.77062 29.967 3.77062H8.83268C6.04242 3.77062 3.77062 6.04242 3.77062 8.83268V39.1202C3.77062 41.9104 6.04242 44.1822 8.83268 44.1822H15.5915C16.6284 44.1822 17.4768 45.0306 17.4768 46.0676C17.4768 47.1045 16.6379 47.9529 15.5915 47.9529Z" fill="white"/>
<path d="M29.1469 14.8185H9.65277C8.61585 14.8185 7.76746 13.9701 7.76746 12.9332C7.76746 11.8962 8.61585 11.0479 9.65277 11.0479H29.1563C30.1932 11.0479 31.0416 11.8962 31.0416 12.9332C31.0416 13.9701 30.1932 14.8185 29.1469 14.8185Z" fill="white"/>
<path d="M29.1469 22.3597H9.65277C8.61585 22.3597 7.76746 21.5113 7.76746 20.4744C7.76746 19.4375 8.61585 18.5891 9.65277 18.5891H29.1563C30.1932 18.5891 31.0416 19.4375 31.0416 20.4744C31.0416 21.5113 30.1932 22.3597 29.1469 22.3597Z" fill="white"/>
<path d="M21.5396 29.901H9.65277C8.61585 29.901 7.76746 29.0526 7.76746 28.0157C7.76746 26.9788 8.61585 26.1304 9.65277 26.1304H21.5396C22.5766 26.1304 23.425 26.9788 23.425 28.0157C23.425 29.0526 22.5766 29.901 21.5396 29.901Z" fill="white"/>
</g>
<defs>
<clipPath id="clip0">
<rect width="44.3425" height="48" fill="white"/>
</clipPath>
</defs>
</svg>
