<svg width="66" height="66" viewBox="0 0 66 66" fill="none" xmlns="http://www.w3.org/2000/svg">
<rect width="66" height="66" rx="24" fill="#53C351" fill-opacity="0.2"/>
<g clip-path="url(#clip0)">
<path opacity="0.5" d="M41.2235 32.393C40.917 28.4145 37.5613 25.2727 33.4599 25.2727C29.3585 25.2727 26.0028 28.4063 25.6962 32.393C22.6885 33.4594 20.5342 36.3059 20.5342 39.6528C20.5342 43.9102 24.0225 47.3555 28.3145 47.3555C30.2865 47.3555 32.0844 46.6336 33.4599 45.436C34.8353 46.6336 36.6333 47.3555 38.6053 47.3555C42.9055 47.3555 46.3855 43.902 46.3855 39.6528C46.3855 36.3059 44.2312 33.4512 41.2235 32.393Z" fill="#2FA84F"/>
<path opacity="0.5" d="M41.2236 32.393C40.917 28.4145 37.5613 25.2727 33.4599 25.2727C33.4599 29.1118 33.4599 40.4157 33.4599 45.436C34.8353 46.6336 36.6333 47.3555 38.6053 47.3555C42.9056 47.3555 46.3855 43.902 46.3855 39.6528C46.3855 36.3059 44.2313 33.4512 41.2236 32.393Z" fill="#2FA84F"/>
<path d="M38.1661 37.2163L37.205 35.4116L34.4873 36.8308V33.853H32.4324V40.5222L29.7148 39.103L28.7619 40.9077L32.4324 42.819V53.9999H34.4873V39.1276L38.1661 37.2163Z" fill="#2FA84F"/>
<path opacity="0.5" d="M19.7471 44.5501C15.0988 44.5501 11.4946 40.5224 12.058 35.9532L13.4334 24.797C13.8229 21.6388 16.5323 19.2681 19.7471 19.2681C22.9619 19.2681 25.6713 21.6388 26.0608 24.797L27.4362 35.9532C27.9913 40.5224 24.3954 44.5501 19.7471 44.5501Z" fill="#2FA84F"/>
<path opacity="0.5" d="M19.7471 44.5501C19.7471 39.4149 19.7471 23.2876 19.7471 19.2681C22.9619 19.2681 25.6713 21.6388 26.0607 24.797L27.4362 35.9532C27.9913 40.5224 24.3953 44.5501 19.7471 44.5501Z" fill="#2FA84F"/>
<path d="M23.4922 35.8629L20.7745 37.2739V32.1059L24.4451 30.1946L23.4922 28.3899L20.7745 29.809V26.8313H18.7197V33.5415L16.002 32.1223L15.0408 33.927L18.7197 35.8383V54.0001H20.7745V39.5708L24.4451 37.6594L23.4922 35.8629Z" fill="#2FA84F"/>
<path d="M45.6812 28.4883C50.2801 28.4883 54.0083 24.7973 54.0083 20.2441C54.0083 15.691 50.2801 12 45.6812 12C41.0823 12 37.3541 15.691 37.3541 20.2441C37.3541 24.7973 41.0823 28.4883 45.6812 28.4883Z" fill="#369151"/>
<path opacity="0.8" d="M45.6812 26.9542C49.4244 26.9542 52.4589 23.95 52.4589 20.2441C52.4589 16.5382 49.4244 13.5339 45.6812 13.5339C41.938 13.5339 38.9036 16.5382 38.9036 20.2441C38.9036 23.95 41.938 26.9542 45.6812 26.9542Z" fill="white"/>
<path d="M44.4632 23.7552L41.1904 20.5149L42.5824 19.1368L44.4632 20.9989L48.7717 16.7251L50.1637 18.1032L44.4632 23.7552Z" fill="#2FA84F"/>
</g>
<defs>
<clipPath id="clip0">
<rect width="42" height="42" fill="white" transform="translate(12 12)"/>
</clipPath>
</defs>
</svg>
