<svg width="66" height="66" viewBox="0 0 66 66" fill="none" xmlns="http://www.w3.org/2000/svg">
<rect width="66" height="66" rx="24" fill="#EA3D2F" fill-opacity="0.2"/>
<path d="M50.0782 28.4219C50.0782 28.4219 47.9688 30.3906 44.3829 32.7109C43.3985 27.0156 40.6563 19.9844 35.3125 11.4062C35.3125 11.4062 33.5547 20.6172 27.7188 29.2656C25.1875 25.3281 24.0625 22.2344 24.0625 22.2344C5.78129 40.5859 20.9688 53.5938 30.5313 53.5938C42.7657 53.5938 53.5235 47.6875 50.0782 28.4219Z" fill="#EA3D2F" fill-opacity="0.5"/>
<path d="M42.8359 44.7344C43.8906 42.4141 44.6641 39.3906 44.8047 35.5938C44.8047 35.5938 43.3281 36.8594 40.7969 38.4766C40.0937 34.6797 38.1953 30.0391 34.4687 24.2734C34.4687 24.2734 33.2734 30.3906 29.1953 36.2266C27.4375 33.625 26.6641 31.5156 26.6641 31.5156C23.6406 36.2969 22.4453 40.0937 22.375 43.1172C20.6875 42.4844 19.6328 41.9922 19.6328 41.9922C22.5156 50.5703 28.4922 52.4687 31.1641 52.4687C35.9453 52.4687 40.7969 51.0625 45.5781 44.2422C45.5781 44.1719 44.5234 44.4531 42.8359 44.7344Z" fill="#EA3D2F" fill-opacity="0.6"/>
<path d="M25.3985 40.8672C25.3985 40.8672 27.3672 43.5391 28.8438 42.9062C28.8438 42.9062 31.6563 38.4766 35.7344 36.0156C35.7344 36.0156 34.8906 42.7656 35.875 43.9609C37.1406 45.5781 40.5859 42.2031 40.5859 42.2031C40.5859 46.2109 36.2266 51.2031 32.2891 51.2031C28.4922 51.2031 23.0078 46.8438 25.3985 40.8672Z" fill="#EA3D2F"/>
<path d="M45.0156 22.7266C46.4922 20.6172 47.4766 18.3672 47.4766 18.3672C49.9375 22.4453 48.461 24.9062 47.4063 25.6797C45.9297 26.8047 43.3281 25.1875 45.0156 22.7266Z" fill="#EA3D2F" fill-opacity="0.5"/>
<path d="M18.1562 22.0234C16.6797 19.5625 16.539 16.4688 16.539 16.4688C13.0234 21.7422 14.3594 24.6953 15.5547 25.5391C17.1015 26.7344 19.7734 24.9062 18.1562 22.0234Z" fill="#EA3D2F" fill-opacity="0.5"/>
<path d="M26.3125 16.5391C26.5234 14.8516 25.8203 13.1641 25.8203 13.1641C29.125 15.3438 29.125 17.1719 28.7031 17.9453C28.0703 18.8594 26.1016 18.4375 26.3125 16.5391Z" fill="#EA3D2F" fill-opacity="0.5"/>
</svg>
