<svg width="35" height="35" viewBox="0 0 35 35" fill="none" xmlns="http://www.w3.org/2000/svg">
<path opacity="0.5" d="M29.2235 13.393C28.917 9.4145 25.5613 6.27271 21.4599 6.27271C17.3585 6.27271 14.0028 9.4063 13.6962 13.393C10.6885 14.4594 8.53424 17.3059 8.53424 20.6528C8.53424 24.9102 12.0225 28.3555 16.3145 28.3555C18.2865 28.3555 20.0844 27.6336 21.4599 26.436C22.8353 27.6336 24.6333 28.3555 26.6053 28.3555C30.9055 28.3555 34.3855 24.902 34.3855 20.6528C34.3855 17.3059 32.2312 14.4512 29.2235 13.393Z" fill="#2FA84F"/>
<path opacity="0.5" d="M29.2236 13.393C28.917 9.4145 25.5613 6.27271 21.4599 6.27271C21.4599 10.1118 21.4599 21.4157 21.4599 26.436C22.8353 27.6336 24.6333 28.3555 26.6053 28.3555C30.9055 28.3555 34.3855 24.902 34.3855 20.6528C34.3855 17.3059 32.2313 14.4512 29.2236 13.393Z" fill="#2FA84F"/>
<path d="M26.1661 18.2163L25.205 16.4116L22.4873 17.8308V14.853H20.4324V21.5222L17.7147 20.103L16.7619 21.9077L20.4324 23.819V34.9999H22.4873V20.1276L26.1661 18.2163Z" fill="#2FA84F"/>
<path opacity="0.5" d="M7.7471 25.5501C3.09884 25.5501 -0.505417 21.5224 0.0580078 16.9532L1.43343 5.79697C1.82285 2.63877 4.53226 0.268066 7.7471 0.268066C10.9619 0.268066 13.6713 2.63877 14.0608 5.79697L15.4362 16.9532C15.9913 21.5224 12.3954 25.5501 7.7471 25.5501Z" fill="#2FA84F"/>
<path opacity="0.5" d="M7.7471 25.5501C7.7471 20.4149 7.7471 4.2876 7.7471 0.268066C10.9619 0.268066 13.6713 2.63877 14.0608 5.79697L15.4362 16.9532C15.9913 21.5224 12.3954 25.5501 7.7471 25.5501Z" fill="#2FA84F"/>
<path d="M11.4922 16.8629L8.77451 18.2739V13.1059L12.4451 11.1946L11.4922 9.38989L8.77451 10.809V7.8313H6.71966V14.5415L4.00197 13.1223L3.04083 14.927L6.71966 16.8383V35.0001H8.77451V20.5708L12.4451 18.6594L11.4922 16.8629Z" fill="#2FA84F"/>
</svg>
