<svg width="66" height="66" viewBox="0 0 66 66" fill="none" xmlns="http://www.w3.org/2000/svg">
<rect width="66" height="66" rx="24" fill="#F3A72E" fill-opacity="0.2"/>
<g clip-path="url(#clip0)">
<path d="M34.8643 39.5059V52.2588H30.1446V39.5059C30.9268 39.3564 31.7354 39.1016 32.5088 39.1016C33.2823 39.1016 34.0821 39.3564 34.8643 39.5059Z" fill="#F3A72E"/>
<path opacity="0.2" d="M31.7882 39.163C31.2432 39.2509 30.6807 39.4003 30.1446 39.5058V41.1142C30.9268 40.9648 31.7354 40.7099 32.5089 40.7099H32.5176C33.0274 40.7099 33.4405 41.1405 33.4405 41.6503V52.2587H34.8731V39.5058C33.7042 39.2773 32.9835 38.9784 31.7882 39.163Z" fill="white"/>
<path d="M17.3652 46.748V52.2587H12.6455V46.748C12.6455 46.4579 12.918 46.247 13.1992 46.3173C14.4033 46.6161 15.6074 46.6161 16.8115 46.3173C17.0928 46.247 17.3652 46.4579 17.3652 46.748Z" fill="#F3A72E"/>
<path opacity="0.2" d="M16.8115 46.3173C16.4687 46.3964 16.1348 46.4579 15.792 46.4931C15.8447 46.5634 15.8711 46.6513 15.8711 46.748V52.2587H17.3652V46.748C17.3652 46.4579 17.0928 46.247 16.8115 46.3173Z" fill="white"/>
<path d="M26.1192 46.748V52.2587H21.3995V46.748C21.3995 46.4579 21.6719 46.247 21.9532 46.3173C23.1573 46.6161 24.3614 46.6161 25.5655 46.3173C25.838 46.247 26.1192 46.4579 26.1192 46.748Z" fill="#F3A72E"/>
<path opacity="0.2" d="M25.5566 46.3173C25.2138 46.3964 24.8798 46.4579 24.537 46.4931C24.5898 46.5634 24.6162 46.6513 24.6162 46.748V52.2587H26.1103V46.748C26.1103 46.4579 25.8378 46.247 25.5566 46.3173Z" fill="white"/>
<path d="M26.1192 46.748V52.2587H21.3995V46.748C21.3995 46.4579 21.6719 46.247 21.9532 46.3173C23.1573 46.6161 24.3614 46.6161 25.5655 46.3173C25.838 46.247 26.1192 46.4579 26.1192 46.748Z" fill="#F3A72E"/>
<path opacity="0.2" d="M25.5566 46.3173C25.2138 46.3964 24.8798 46.4579 24.537 46.4931C24.5898 46.5634 24.6162 46.6513 24.6162 46.748V52.2587H26.1103V46.748C26.1103 46.4579 25.8378 46.247 25.5566 46.3173Z" fill="white"/>
<path d="M43.6094 46.748V52.2587H38.8897V46.748C38.8897 46.4579 39.1622 46.247 39.4434 46.3173C40.6475 46.6161 41.8516 46.6161 43.0557 46.3173C43.337 46.247 43.6094 46.4579 43.6094 46.748Z" fill="#F3A72E"/>
<path opacity="0.2" d="M43.0557 46.3173C42.7129 46.3964 42.3789 46.4579 42.0361 46.4931C42.0889 46.5634 42.1152 46.6513 42.1152 46.748V52.2587H43.6094V46.748C43.6094 46.4579 43.3369 46.247 43.0557 46.3173Z" fill="white"/>
<path d="M43.6094 46.748V52.2587H38.8897V46.748C38.8897 46.4579 39.1622 46.247 39.4434 46.3173C40.6475 46.6161 41.8516 46.6161 43.0557 46.3173C43.337 46.247 43.6094 46.4579 43.6094 46.748Z" fill="#F3A72E"/>
<path opacity="0.2" d="M43.0557 46.3173C42.7129 46.3964 42.3789 46.4579 42.0361 46.4931C42.0889 46.5634 42.1152 46.6513 42.1152 46.748V52.2587H43.6094V46.748C43.6094 46.4579 43.3369 46.247 43.0557 46.3173Z" fill="white"/>
<path d="M52.3546 46.748V52.2587H47.6348V46.748C47.6348 46.4579 47.9073 46.247 48.1885 46.3173C49.3926 46.6161 50.5967 46.6161 51.8008 46.3173C52.0821 46.247 52.3546 46.4579 52.3546 46.748Z" fill="#F3A72E"/>
<path d="M45.8506 26.8056C45.8506 28.1855 44.6025 29.3544 44.1982 30.6025C43.7764 31.8945 44.084 33.5732 43.3018 34.6454C42.5107 35.7353 40.8145 35.955 39.7246 36.746C38.6523 37.5282 37.9229 39.0751 36.6221 39.497C36.0684 39.6728 35.4707 39.62 34.8555 39.497C34.0732 39.3476 33.2646 39.0927 32.4912 39.0927C31.7178 39.0927 30.9092 39.3476 30.127 39.497C29.5117 39.62 28.9141 39.6728 28.3604 39.497C27.0684 39.0751 26.3389 37.5282 25.2578 36.746C24.168 35.955 22.4805 35.7353 21.6807 34.6454C20.8984 33.5732 21.2061 31.8945 20.7842 30.6025C20.3799 29.3544 19.1318 28.1855 19.1318 26.8056C19.1318 25.4257 20.3799 24.2568 20.7842 23.0087C21.2061 21.7167 20.8984 20.038 21.6807 18.9657C22.4717 17.8759 24.168 17.6562 25.2578 16.8652C26.3301 16.0829 27.0684 14.5361 28.3604 14.1142C29.6084 13.7099 31.1025 14.5185 32.4824 14.5185C33.8623 14.5185 35.3564 13.7099 36.6045 14.1142C37.8965 14.5361 38.626 16.0829 39.707 16.8652C40.7969 17.6562 42.4844 17.8759 43.2842 18.9657C44.0664 20.0468 43.7588 21.7167 44.1807 23.0087C44.5938 24.2568 45.8418 25.4257 45.8506 26.8056Z" fill="#F3A72E"/>
<path opacity="0.2" d="M44.1895 23.0088C43.7676 21.7168 44.0752 20.0381 43.293 18.9658C42.502 17.876 40.8057 17.6562 39.7158 16.8652C38.6523 16.083 37.9229 14.5361 36.6221 14.1142C35.7256 13.8242 34.7148 14.1582 33.6953 14.3691C33.8535 14.3867 34.0117 14.4131 34.1611 14.4658C35.418 14.8701 36.1299 16.3818 37.1758 17.1377C38.2305 17.9111 39.8828 18.1221 40.6475 19.1767C41.4121 20.2226 41.1133 21.8574 41.5176 23.1142C41.9131 24.3271 43.126 25.4609 43.126 26.8056C43.126 28.1504 41.9131 29.2842 41.5176 30.4971C41.1133 31.7539 41.4121 33.3887 40.6475 34.4346C39.874 35.4892 38.2305 35.709 37.1758 36.4736C36.1299 37.2383 35.418 38.7412 34.1611 39.1455C34.0117 39.1982 33.8535 39.2246 33.6953 39.2422C34.082 39.3213 34.4775 39.4267 34.8555 39.4971C35.4707 39.6201 36.0684 39.6728 36.6221 39.4971C37.9141 39.0752 38.6436 37.5283 39.7246 36.7461C40.8145 35.9551 42.502 35.7353 43.3018 34.6455C44.084 33.5732 43.7764 31.8945 44.1982 30.6025C44.6025 29.3545 45.8506 28.1855 45.8506 26.8056C45.8506 25.4258 44.6025 24.2568 44.1895 23.0088Z" fill="white"/>
<g opacity="0.2">
<path d="M34.8643 27.8955C34.5919 27.8955 34.337 27.7197 34.2403 27.4473C34.1172 27.1045 34.3018 26.7266 34.6446 26.6123C34.9258 26.5156 35.2247 26.3311 35.5323 26.1377C36.0772 25.7949 36.6924 25.417 37.4219 25.3994C37.4307 25.3994 37.4483 25.3994 37.4571 25.3994C38.1778 25.3994 38.793 25.7598 39.3467 26.0762C39.6631 26.2607 39.962 26.4277 40.2432 26.5156C40.5948 26.6211 40.7881 26.9902 40.6827 27.3418C40.5772 27.6934 40.2081 27.8867 39.8565 27.7812C39.4346 27.6494 39.0567 27.4297 38.6876 27.2187C38.2481 26.9639 37.8262 26.7178 37.4571 26.7178C37.4483 26.7178 37.4483 26.7178 37.4395 26.7178C37.0792 26.7266 36.6661 26.9814 36.2266 27.2539C35.8663 27.4824 35.4883 27.7109 35.0665 27.8603C35.0049 27.8867 34.9346 27.8955 34.8643 27.8955Z" fill="white"/>
<path d="M27.5606 34.6807C27.2881 34.6807 27.0333 34.5049 26.9366 34.2324C26.8135 33.8896 26.9981 33.5117 27.3409 33.3974C27.4991 33.3447 27.6837 33.2304 27.877 33.1074C28.2637 32.8701 28.6944 32.5976 29.2393 32.5888C29.7842 32.5801 30.2325 32.8349 30.6192 33.0635C30.8126 33.1777 31.0059 33.2832 31.1641 33.3359C31.5157 33.4414 31.709 33.8105 31.6036 34.1621C31.4981 34.5137 31.129 34.707 30.7774 34.6015C30.4786 34.5137 30.1973 34.3555 29.96 34.2148C29.7051 34.0654 29.4415 33.916 29.2657 33.916C29.2657 33.916 29.2657 33.916 29.2569 33.916C29.0811 33.916 28.8262 34.083 28.5713 34.2324C28.334 34.3818 28.0616 34.5488 27.7628 34.6543C27.71 34.6631 27.6309 34.6807 27.5606 34.6807Z" fill="white"/>
<path d="M25.3633 21.2949C25.0909 21.2949 24.836 21.1191 24.7393 20.8466C24.6163 20.5039 24.8008 20.1259 25.1436 20.0117C25.337 19.9414 25.5479 19.8095 25.7764 19.6689C26.2071 19.4052 26.6905 19.0976 27.2794 19.0888C27.877 19.08 28.378 19.3613 28.8087 19.6162C29.0372 19.748 29.2569 19.871 29.4503 19.9326C29.8018 20.038 29.9952 20.4072 29.8897 20.7587C29.7842 21.1103 29.4151 21.3037 29.0635 21.1982C28.7296 21.0927 28.4307 20.9257 28.1495 20.7587C27.8331 20.5742 27.5342 20.4072 27.3057 20.4072H27.2969C27.0684 20.4072 26.7784 20.5917 26.4708 20.7851C26.1895 20.9609 25.8995 21.1367 25.5655 21.2509C25.5128 21.2773 25.4424 21.2949 25.3633 21.2949Z" fill="white"/>
</g>
<path d="M54.3408 52.918H10.6592C10.2988 52.918 10 52.6191 10 52.2588C10 51.8984 10.2988 51.5996 10.6592 51.5996H54.3408C54.7012 51.5996 55 51.8984 55 52.2588C55 52.6191 54.7012 52.918 54.3408 52.918Z" fill="#F3A72E"/>
</g>
<defs>
<clipPath id="clip0">
<rect width="45" height="38.918" fill="white" transform="translate(10 14)"/>
</clipPath>
</defs>
</svg>
