<svg width="1437" height="914" viewBox="0 0 1437 914" fill="none" xmlns="http://www.w3.org/2000/svg">
<path d="M980.756 1.24087e-06L-3 583.368L26.5858 633.334L1010.34 49.9657L980.756 1.24087e-06Z" fill="#F2F2F2"/>
<path d="M1194.57 48.9088L210.817 632.277L240.403 682.243L1224.16 98.8745L1194.57 48.9088Z" fill="#F2F2F2"/>
<path d="M1383.95 102.403L400.198 685.771L429.784 735.737L1413.54 152.368L1383.95 102.403Z" fill="#F2F2F2"/>
<path d="M637.773 683.849C807.878 683.849 945.776 545.849 945.776 375.617C945.776 205.386 807.878 67.3857 637.773 67.3857C467.668 67.3857 329.77 205.386 329.77 375.617C329.77 545.849 467.668 683.849 637.773 683.849Z" fill="white"/>
<path d="M327.479 375.617C327.479 204.394 466.676 65.0934 637.773 65.0934C808.87 65.0934 948.066 204.394 948.066 375.617C948.066 546.841 808.87 686.141 637.773 686.141C466.676 686.141 327.479 546.841 327.479 375.617ZM332.061 375.617C332.061 544.312 469.203 681.556 637.773 681.556C806.343 681.556 943.485 544.312 943.485 375.617C943.485 206.923 806.343 69.6786 637.773 69.6786C469.203 69.6786 332.061 206.922 332.061 375.617H332.061Z" fill="#3F3D56"/>
<path d="M582.868 376.958C582.868 366.09 586.088 355.467 592.121 346.431C598.154 337.396 606.729 330.353 616.761 326.194C626.794 322.036 637.834 320.948 648.484 323.068C659.135 325.188 668.918 330.421 676.596 338.105C684.275 345.789 689.504 355.58 691.623 366.238C693.741 376.897 692.654 387.944 688.498 397.984C684.342 408.024 677.305 416.606 668.276 422.643C659.247 428.681 648.632 431.903 637.773 431.903C623.211 431.903 609.246 426.114 598.949 415.81C588.652 405.506 582.868 391.53 582.868 376.958V376.958ZM637.773 324.692C623.926 324.708 610.651 330.219 600.86 340.018C591.069 349.816 585.562 363.101 585.546 376.958V376.958C585.546 387.295 588.609 397.4 594.348 405.995C600.087 414.59 608.243 421.289 617.786 425.244C627.33 429.2 637.831 430.235 647.961 428.219C658.092 426.202 667.398 421.224 674.702 413.915C682.006 406.605 686.98 397.292 688.996 387.154C691.011 377.016 689.977 366.507 686.024 356.956C682.071 347.406 675.377 339.244 666.788 333.501C658.199 327.758 648.102 324.692 637.773 324.692V324.692Z" fill="#3F3D56"/>
<path d="M533.319 376.958C533.319 356.283 539.445 336.074 550.923 318.884C562.4 301.694 578.714 288.296 597.8 280.384C616.886 272.472 637.888 270.402 658.15 274.436C678.412 278.469 697.024 288.425 711.632 303.043C726.24 317.662 736.188 336.288 740.219 356.565C744.249 376.842 742.18 397.859 734.275 416.96C726.369 436.06 712.981 452.386 695.804 463.872C678.626 475.358 658.431 481.488 637.773 481.488C624.056 481.488 610.473 478.785 597.8 473.531C585.127 468.278 573.612 460.579 563.913 450.872C554.214 441.165 546.52 429.642 541.27 416.96C536.021 404.278 533.319 390.685 533.319 376.958V376.958ZM637.773 275.107C617.643 275.107 597.966 281.081 581.229 292.272C564.493 303.464 551.448 319.37 543.745 337.981C536.042 356.592 534.026 377.071 537.953 396.828C541.88 416.585 551.573 434.733 565.807 448.977C580.04 463.221 598.175 472.921 617.917 476.851C637.66 480.781 658.123 478.764 676.72 471.055C695.317 463.346 711.212 450.292 722.395 433.543C733.578 416.794 739.547 397.102 739.547 376.958C739.517 349.955 728.784 324.066 709.705 304.972C690.625 285.878 664.756 275.138 637.773 275.107Z" fill="#CCCCCC"/>
<path d="M434.223 376.957C434.223 336.669 446.161 297.286 468.528 263.787C490.894 230.289 522.684 204.18 559.878 188.762C597.072 173.345 637.999 169.311 677.484 177.171C716.968 185.031 753.237 204.431 781.704 232.919C810.171 261.407 829.558 297.703 837.412 337.217C845.266 376.732 841.235 417.689 825.828 454.91C810.422 492.132 784.333 523.946 750.859 546.328C717.386 568.711 678.031 580.658 637.773 580.658C583.807 580.597 532.069 559.116 493.909 520.928C455.749 482.74 434.284 430.964 434.223 376.957V376.957ZM637.773 175.937C598.044 175.937 559.208 187.727 526.175 209.815C493.142 231.904 467.395 263.299 452.192 300.03C436.988 336.762 433.011 377.181 440.761 416.175C448.512 455.169 467.643 490.987 495.735 519.1C523.828 547.214 559.62 566.359 598.585 574.115C637.55 581.872 677.939 577.891 714.643 562.676C751.348 547.461 782.719 521.696 804.791 488.639C826.863 455.581 838.644 416.716 838.644 376.958C838.584 323.662 817.402 272.567 779.744 234.881C742.086 197.196 691.029 175.997 637.773 175.937V175.937Z" fill="#CCCCCC"/>
<path d="M637.773 401.08C651.825 401.08 663.216 389.68 663.216 375.617C663.216 361.555 651.825 350.155 637.773 350.155C623.721 350.155 612.329 361.555 612.329 375.617C612.329 389.68 623.721 401.08 637.773 401.08Z" fill="#2FA84F"/>
<path d="M572.155 474.787C586.207 474.787 597.598 463.387 597.598 449.325C597.598 435.262 586.207 423.862 572.155 423.862C558.103 423.862 546.711 435.262 546.711 449.325C546.711 463.387 558.103 474.787 572.155 474.787Z" fill="#2FA84F"/>
<path d="M828.151 464.067C842.204 464.067 853.595 452.667 853.595 438.604C853.595 424.541 842.204 413.141 828.151 413.141C814.099 413.141 802.708 424.541 802.708 438.604C802.708 452.667 814.099 464.067 828.151 464.067Z" fill="#2FA84F"/>
<path d="M637.773 387.678C644.429 387.678 649.825 382.279 649.825 375.617C649.825 368.956 644.429 363.556 637.773 363.556C631.116 363.556 625.72 368.956 625.72 375.617C625.72 382.279 631.116 387.678 637.773 387.678Z" fill="#2F2E41"/>
<path d="M828.151 450.665C834.807 450.665 840.203 445.265 840.203 438.604C840.203 431.942 834.807 426.542 828.151 426.542C821.495 426.542 816.099 431.942 816.099 438.604C816.099 445.265 821.495 450.665 828.151 450.665Z" fill="#2F2E41"/>
<path d="M572.155 462.726C578.811 462.726 584.207 457.326 584.207 450.665C584.207 444.004 578.811 438.604 572.155 438.604C565.498 438.604 560.102 444.004 560.102 450.665C560.102 457.326 565.498 462.726 572.155 462.726Z" fill="#2F2E41"/>
<path d="M75.3325 252.325C81.9888 252.325 87.3848 246.925 87.3848 240.264C87.3848 233.602 81.9888 228.202 75.3325 228.202C68.6763 228.202 63.2803 233.602 63.2803 240.264C63.2803 246.925 68.6763 252.325 75.3325 252.325Z" fill="#2FA84F"/>
<path d="M637.102 240.935H108.141V238.255H639.782V376.287H637.102V240.935Z" fill="#2F2E41"/>
<path d="M40.5149 240.264C40.5149 233.372 42.5569 226.636 46.3827 220.906C50.2085 215.176 55.6463 210.71 62.0084 208.073C68.3705 205.435 75.3712 204.745 82.1252 206.09C88.8791 207.434 95.0831 210.753 99.9524 215.626C104.822 220.499 108.138 226.707 109.481 233.466C110.825 240.225 110.135 247.231 107.5 253.598C104.865 259.965 100.402 265.406 94.6763 269.235C88.9506 273.064 82.2189 275.107 75.3326 275.107C70.7603 275.107 66.2327 274.206 62.0084 272.455C57.7842 270.704 53.9459 268.137 50.7128 264.902C47.4796 261.666 44.915 257.825 43.1652 253.598C41.4155 249.37 40.5149 244.84 40.5149 240.264V240.264ZM75.3326 208.101C68.9761 208.101 62.7622 209.987 57.4769 213.521C52.1916 217.055 48.0722 222.078 45.6397 227.955C43.2071 233.833 42.5706 240.299 43.8107 246.539C45.0508 252.778 48.1118 258.509 52.6066 263.007C57.1014 267.505 62.828 270.568 69.0625 271.809C75.2969 273.05 81.7591 272.413 87.6318 269.979C93.5045 267.544 98.524 263.422 102.056 258.133C105.587 252.844 107.472 246.625 107.472 240.264C107.462 231.737 104.073 223.561 98.0478 217.532C92.0226 211.502 83.8535 208.11 75.3326 208.101V208.101Z" fill="#2F2E41"/>
<path d="M155.681 599.42C162.338 599.42 167.734 594.02 167.734 587.359C167.734 580.698 162.338 575.298 155.681 575.298C149.025 575.298 143.629 580.698 143.629 587.359C143.629 594.02 149.025 599.42 155.681 599.42Z" fill="#2FA84F"/>
<path d="M120.863 587.359C120.863 580.467 122.905 573.731 126.731 568.001C130.557 562.271 135.995 557.805 142.357 555.168C148.719 552.53 155.72 551.84 162.474 553.185C169.228 554.529 175.432 557.848 180.301 562.721C185.17 567.594 188.486 573.802 189.83 580.561C191.173 587.32 190.484 594.326 187.848 600.693C185.213 607.06 180.75 612.501 175.025 616.33C169.299 620.159 162.567 622.202 155.681 622.202C146.447 622.202 137.591 618.531 131.061 611.997C124.532 605.462 120.863 596.6 120.863 587.359V587.359ZM155.681 555.196C149.324 555.196 143.111 557.082 137.825 560.616C132.54 564.15 128.421 569.173 125.988 575.05C123.556 580.928 122.919 587.394 124.159 593.634C125.399 599.873 128.46 605.603 132.955 610.102C137.45 614.6 143.176 617.663 149.411 618.904C155.645 620.145 162.108 619.508 167.98 617.074C173.853 614.639 178.872 610.517 182.404 605.228C185.935 599.939 187.82 593.72 187.82 587.359C187.811 578.832 184.421 570.656 178.396 564.627C172.371 558.597 164.202 555.205 155.681 555.196Z" fill="#2F2E41"/>
<path d="M1201.77 308.611C1208.43 308.611 1213.82 303.211 1213.82 296.549C1213.82 289.888 1208.43 284.488 1201.77 284.488C1195.12 284.488 1189.72 289.888 1189.72 296.549C1189.72 303.211 1195.12 308.611 1201.77 308.611Z" fill="#2FA84F"/>
<path d="M1166.95 296.549C1166.95 289.658 1169 282.921 1172.82 277.191C1176.65 271.461 1182.09 266.995 1188.45 264.358C1194.81 261.721 1201.81 261.031 1208.56 262.375C1215.32 263.72 1221.52 267.038 1226.39 271.911C1231.26 276.784 1234.58 282.993 1235.92 289.752C1237.26 296.511 1236.57 303.517 1233.94 309.883C1231.3 316.25 1226.84 321.692 1221.12 325.521C1215.39 329.349 1208.66 331.393 1201.77 331.393C1197.2 331.393 1192.67 330.492 1188.45 328.741C1184.22 326.99 1180.39 324.423 1177.15 321.188C1173.92 317.952 1171.35 314.111 1169.6 309.883C1167.85 305.656 1166.95 301.125 1166.95 296.549V296.549ZM1201.77 264.386C1193.25 264.396 1185.08 267.788 1179.06 273.817C1173.03 279.847 1169.64 288.022 1169.63 296.549V296.549C1169.63 302.911 1171.52 309.129 1175.05 314.418C1178.58 319.708 1183.6 323.83 1189.47 326.264C1195.35 328.699 1201.81 329.336 1208.04 328.095C1214.28 326.854 1220 323.79 1224.5 319.292C1228.99 314.794 1232.05 309.063 1233.29 302.824C1234.53 296.585 1233.9 290.118 1231.47 284.241C1229.03 278.364 1224.91 273.341 1219.63 269.807C1214.34 266.272 1208.13 264.386 1201.77 264.386V264.386Z" fill="#2F2E41"/>
<path d="M826.812 300.59L1168.27 295.21L1168.31 297.888L829.49 303.229V438.604H826.812V300.59Z" fill="#2F2E41"/>
<path d="M189.161 586.019H570.815V450.666H573.493V588.698H189.161V586.019Z" fill="#2F2E41"/>
<path d="M148.986 303.25H1.67999V312.631H148.986V303.25Z" fill="#CCCCCC"/>
<path d="M148.986 330.053H1.67999V339.434H148.986V330.053Z" fill="#CCCCCC"/>
<path d="M148.986 356.855H1.67999V366.236H148.986V356.855Z" fill="#CCCCCC"/>
<path d="M229.334 650.345H82.0285V659.726H229.334V650.345Z" fill="#CCCCCC"/>
<path d="M229.334 677.148H82.0285V686.529H229.334V677.148Z" fill="#CCCCCC"/>
<path d="M229.334 703.951H82.0285V713.332H229.334V703.951Z" fill="#CCCCCC"/>
<path d="M1275.42 360.876H1128.12V370.257H1275.42V360.876Z" fill="#CCCCCC"/>
<path d="M1275.42 387.679H1128.12V397.06H1275.42V387.679Z" fill="#CCCCCC"/>
<path d="M1275.42 414.481H1128.12V423.862H1275.42V414.481Z" fill="#CCCCCC"/>
<path d="M1260.03 632.259L1250.35 613.127C1250.35 613.127 1214.31 622.164 1211.03 643.069L1260.03 632.259Z" fill="#2FA84F"/>
<path d="M1299.95 851.017L1273.64 997.951L1343.5 1121.59L1301.76 1137.94L1230.99 1018.08L1221.92 985.397L1216.48 1156.1L1178.84 1154.95L1161.58 995.561L1189.26 847.385L1299.95 851.017Z" fill="#2F2E41"/>
<path d="M1174.28 877.524C1173.46 873.885 1171.12 762.805 1171.12 762.805C1171.12 762.805 1209.82 635.672 1210.17 634.628L1210.31 634.22L1239.69 623.197C1240.1 623.009 1249.89 618.644 1257.9 622.282C1259.95 623.282 1261.77 624.719 1263.21 626.492C1264.65 628.266 1265.69 630.333 1266.25 632.549C1269.58 635.034 1293.6 661.954 1293.6 698.468L1294.5 784.633L1314.64 878.047L1313.75 878.236C1313.2 878.353 1288.65 885.752 1250 885.752C1228.52 885.752 1174.28 877.524 1174.28 877.524Z" fill="#3F3D56"/>
<path d="M1220.3 607.103C1242.23 607.103 1260.01 589.312 1260.01 567.365C1260.01 545.418 1242.23 527.627 1220.3 527.627C1198.37 527.627 1180.59 545.418 1180.59 567.365C1180.59 589.312 1198.37 607.103 1220.3 607.103Z" fill="#FFB8B8"/>
<path opacity="0.2" d="M1276.87 742.434L1207.4 839.435L1197.14 794.136L1276.87 742.434Z" fill="black"/>
<path d="M1153.57 841.526C1156.06 841.428 1158.5 840.784 1160.71 839.64C1162.93 838.497 1164.86 836.881 1166.39 834.908C1167.91 832.934 1168.98 830.651 1169.53 828.218C1170.07 825.786 1170.08 823.263 1169.54 820.828L1221.16 789.141L1192.66 775.797L1148.01 807.933C1143.98 809.103 1140.52 811.71 1138.29 815.262C1136.05 818.814 1135.2 823.063 1135.88 827.203C1136.57 831.344 1138.75 835.089 1142.01 837.729C1145.27 840.369 1149.38 841.72 1153.57 841.526V841.526Z" fill="#FFB8B8"/>
<path d="M1189.26 776.563L1171.58 788.961L1186.57 815.606L1207.4 798.355L1189.26 776.563Z" fill="#2FA84F"/>
<path d="M1180 777.345L1221.59 729.107L1205.65 662.573C1204.01 655.697 1204.92 648.456 1208.21 642.203C1211.51 635.949 1216.97 631.11 1223.57 628.589C1230.17 626.068 1237.46 626.037 1244.09 628.503C1250.71 630.969 1256.21 635.762 1259.56 641.988L1259.92 642.661L1274.6 741.464L1200.83 817.136L1180 777.345Z" fill="#3F3D56"/>
<path d="M1254.12 601.867L1221.17 603.051C1219.16 603.123 1213.7 581.426 1212.99 576.925C1212.43 573.994 1210.82 571.37 1208.46 569.541C1206.1 567.712 1203.16 566.804 1200.18 566.987C1197.72 567.22 1191.5 562.607 1185.08 557.145C1172.89 546.776 1173.52 527.301 1186.91 518.538C1187.28 518.299 1187.64 518.08 1187.99 517.882C1196.43 513.151 1206.31 511.563 1215.99 511.442C1224.77 511.332 1233.79 512.437 1241.52 516.593C1255.38 524.043 1262.75 540.325 1263.4 556.054C1264.05 571.783 1259.01 587.163 1253.29 601.828" fill="#2F2E41"/>
</svg>
