<svg width="189" height="68" viewBox="0 0 189 68" fill="none" xmlns="http://www.w3.org/2000/svg">
<rect width="189" height="68" rx="5" fill="#142940"/>
<g clip-path="url(#clip0_7_179)">
<path opacity="0.5" d="M48.1006 29.9389C47.8172 26.2618 44.7157 23.358 40.925 23.358C37.1344 23.358 34.0329 26.2542 33.7495 29.9389C30.9697 30.9245 28.9786 33.5554 28.9786 36.6487C28.9786 40.5836 32.2026 43.7679 36.1695 43.7679C37.9921 43.7679 39.6538 43.1007 40.925 41.9938C42.1963 43.1007 43.858 43.7679 45.6806 43.7679C49.6551 43.7679 52.8715 40.576 52.8715 36.6487C52.8715 33.5554 50.8804 30.917 48.1006 29.9389Z" fill="#2FA84F"/>
<path opacity="0.5" d="M48.1006 29.9389C47.8172 26.2618 44.7157 23.358 40.925 23.358C40.925 26.9063 40.925 37.3538 40.925 41.9938C42.1963 43.1007 43.858 43.7679 45.6806 43.7679C49.6551 43.7679 52.8715 40.576 52.8715 36.6487C52.8715 33.5554 50.8804 30.917 48.1006 29.9389Z" fill="#2FA84F"/>
<path d="M45.2748 34.3969L44.3865 32.729L41.8747 34.0406V31.2885H39.9755V37.4524L37.4637 36.1407L36.583 37.8087L39.9755 39.5752V49.9091H41.8747V36.1635L45.2748 34.3969Z" fill="#2FA84F"/>
<path opacity="0.5" d="M28.2511 41.1751C23.955 41.1751 20.6238 37.4525 21.1445 33.2295L22.4158 22.9184C22.7757 19.9995 25.2798 17.8083 28.2511 17.8083C31.2224 17.8083 33.7266 19.9995 34.0865 22.9184L35.3577 33.2295C35.8708 37.4525 32.5472 41.1751 28.2511 41.1751Z" fill="#2FA84F"/>
<path opacity="0.5" d="M28.2511 41.1751C28.2511 36.4289 28.2511 21.5234 28.2511 17.8083C31.2224 17.8083 33.7265 19.9995 34.0865 22.9184L35.3577 33.2295C35.8708 37.4525 32.5472 41.1751 28.2511 41.1751Z" fill="#2FA84F"/>
<path d="M31.7125 33.146L29.2007 34.4501V29.6736L32.5931 27.9071L31.7125 26.2391L29.2007 27.5507V24.7986H27.3015V31.0004L24.7897 29.6888L23.9014 31.3567L27.3015 33.1233V49.9091H29.2007V36.5729L32.5931 34.8064L31.7125 33.146Z" fill="#2FA84F"/>
</g>
<path d="M74.536 33.481V37H61.61V20.9H74.237V24.419H66.118V27.133H73.271V30.537H66.118V33.481H74.536ZM84.9751 24.327C86.5238 24.327 87.7658 24.787 88.7011 25.707C89.6518 26.627 90.1271 28.0147 90.1271 29.87V37H85.7571V30.583C85.7571 28.881 85.0748 28.03 83.7101 28.03C82.9588 28.03 82.3531 28.2753 81.8931 28.766C81.4485 29.2567 81.2261 29.9927 81.2261 30.974V37H76.8561V24.534H81.0191V25.891C81.5098 25.385 82.0925 25.0017 82.7671 24.741C83.4418 24.465 84.1778 24.327 84.9751 24.327ZM101.473 36.494C101.105 36.724 100.652 36.9003 100.116 37.023C99.5944 37.1457 99.0348 37.207 98.4368 37.207C96.8114 37.207 95.5618 36.8083 94.6878 36.011C93.8138 35.2137 93.3768 34.0253 93.3768 32.446V28.26H91.5598V24.994H93.3768V21.751H97.7468V24.994H100.599V28.26H97.7468V32.4C97.7468 32.8447 97.8618 33.1973 98.0918 33.458C98.3371 33.7033 98.6591 33.826 99.0578 33.826C99.5638 33.826 100.008 33.6957 100.392 33.435L101.473 36.494ZM108.471 24.327C110.541 24.327 112.12 24.8023 113.209 25.753C114.298 26.6883 114.842 28.1297 114.842 30.077V37H110.771V35.39C110.142 36.6013 108.916 37.207 107.091 37.207C106.125 37.207 105.289 37.0383 104.584 36.701C103.879 36.3637 103.342 35.9113 102.974 35.344C102.621 34.7613 102.445 34.102 102.445 33.366C102.445 32.1853 102.897 31.273 103.802 30.629C104.707 29.9697 106.102 29.64 107.988 29.64H110.472C110.395 28.3213 109.514 27.662 107.827 27.662C107.229 27.662 106.623 27.7617 106.01 27.961C105.397 28.145 104.875 28.4057 104.446 28.743L102.974 25.776C103.664 25.316 104.5 24.9633 105.481 24.718C106.478 24.4573 107.474 24.327 108.471 24.327ZM108.31 34.447C108.816 34.447 109.261 34.3243 109.644 34.079C110.027 33.8337 110.303 33.4733 110.472 32.998V31.917H108.586C107.313 31.917 106.677 32.3387 106.677 33.182C106.677 33.5653 106.823 33.872 107.114 34.102C107.405 34.332 107.804 34.447 108.31 34.447ZM126.202 36.494C125.834 36.724 125.382 36.9003 124.845 37.023C124.324 37.1457 123.764 37.207 123.166 37.207C121.541 37.207 120.291 36.8083 119.417 36.011C118.543 35.2137 118.106 34.0253 118.106 32.446V28.26H116.289V24.994H118.106V21.751H122.476V24.994H125.328V28.26H122.476V32.4C122.476 32.8447 122.591 33.1973 122.821 33.458C123.067 33.7033 123.389 33.826 123.787 33.826C124.293 33.826 124.738 33.6957 125.121 33.435L126.202 36.494ZM127.887 24.534H132.257V37H127.887V24.534ZM130.072 23.154C129.275 23.154 128.631 22.9317 128.14 22.487C127.65 22.0423 127.404 21.4903 127.404 20.831C127.404 20.1717 127.65 19.6197 128.14 19.175C128.631 18.7303 129.275 18.508 130.072 18.508C130.87 18.508 131.514 18.7227 132.004 19.152C132.495 19.566 132.74 20.1027 132.74 20.762C132.74 21.452 132.495 22.027 132.004 22.487C131.514 22.9317 130.87 23.154 130.072 23.154ZM148.23 24.534L143.078 37H138.57L133.441 24.534H137.926L140.916 32.147L144.067 24.534H148.23ZM161.765 30.79C161.765 30.8207 161.742 31.181 161.696 31.871H152.634C152.818 32.515 153.171 33.0133 153.692 33.366C154.229 33.7033 154.896 33.872 155.693 33.872C156.291 33.872 156.805 33.7877 157.234 33.619C157.679 33.4503 158.123 33.1743 158.568 32.791L160.868 35.183C159.657 36.5323 157.886 37.207 155.555 37.207C154.098 37.207 152.818 36.931 151.714 36.379C150.61 35.827 149.751 35.0603 149.138 34.079C148.54 33.0977 148.241 31.986 148.241 30.744C148.241 29.5173 148.532 28.421 149.115 27.455C149.713 26.4737 150.533 25.707 151.576 25.155C152.619 24.603 153.792 24.327 155.095 24.327C156.337 24.327 157.464 24.5877 158.476 25.109C159.488 25.615 160.285 26.3587 160.868 27.34C161.466 28.306 161.765 29.456 161.765 30.79ZM155.118 27.432C154.443 27.432 153.876 27.6237 153.416 28.007C152.971 28.3903 152.688 28.9117 152.565 29.571H157.671C157.548 28.9117 157.257 28.3903 156.797 28.007C156.352 27.6237 155.793 27.432 155.118 27.432Z" fill="white"/>
<path d="M66.448 47.112H67.632V49.384C67.328 49.6133 66.976 49.7893 66.576 49.912C66.176 50.0347 65.7733 50.096 65.368 50.096C64.7867 50.096 64.264 49.9733 63.8 49.728C63.336 49.4773 62.9707 49.1333 62.704 48.696C62.4427 48.2533 62.312 47.7547 62.312 47.2C62.312 46.6453 62.4427 46.1493 62.704 45.712C62.9707 45.2693 63.3387 44.9253 63.808 44.68C64.2773 44.4293 64.8053 44.304 65.392 44.304C65.8827 44.304 66.328 44.3867 66.728 44.552C67.128 44.7173 67.464 44.9573 67.736 45.272L66.904 46.04C66.504 45.6187 66.0213 45.408 65.456 45.408C65.0987 45.408 64.7813 45.4827 64.504 45.632C64.2267 45.7813 64.0107 45.992 63.856 46.264C63.7013 46.536 63.624 46.848 63.624 47.2C63.624 47.5467 63.7013 47.856 63.856 48.128C64.0107 48.4 64.224 48.6133 64.496 48.768C64.7733 48.9173 65.088 48.992 65.44 48.992C65.8133 48.992 66.1493 48.912 66.448 48.752V47.112ZM69.9399 46.264C70.0892 46.056 70.2892 45.8987 70.5399 45.792C70.7959 45.6853 71.0892 45.632 71.4199 45.632V46.784C71.2812 46.7733 71.1879 46.768 71.1399 46.768C70.7825 46.768 70.5025 46.8693 70.2999 47.072C70.0972 47.2693 69.9959 47.568 69.9959 47.968V50H68.7479V45.696H69.9399V46.264ZM76.3389 47.864C76.3389 47.88 76.3309 47.992 76.3149 48.2H73.0589C73.1175 48.4667 73.2562 48.6773 73.4749 48.832C73.6935 48.9867 73.9655 49.064 74.2909 49.064C74.5149 49.064 74.7122 49.032 74.8829 48.968C75.0589 48.8987 75.2215 48.792 75.3709 48.648L76.0349 49.368C75.6295 49.832 75.0375 50.064 74.2589 50.064C73.7735 50.064 73.3442 49.9707 72.9709 49.784C72.5975 49.592 72.3095 49.328 72.1069 48.992C71.9042 48.656 71.8029 48.2747 71.8029 47.848C71.8029 47.4267 71.9015 47.048 72.0989 46.712C72.3015 46.3707 72.5762 46.1067 72.9229 45.92C73.2749 45.728 73.6669 45.632 74.0989 45.632C74.5202 45.632 74.9015 45.7227 75.2429 45.904C75.5842 46.0853 75.8509 46.3467 76.0429 46.688C76.2402 47.024 76.3389 47.416 76.3389 47.864ZM74.1069 46.576C73.8242 46.576 73.5869 46.656 73.3949 46.816C73.2029 46.976 73.0855 47.1947 73.0429 47.472H75.1629C75.1202 47.2 75.0029 46.984 74.8109 46.824C74.6189 46.6587 74.3842 46.576 74.1069 46.576ZM81.3858 47.864C81.3858 47.88 81.3778 47.992 81.3618 48.2H78.1058C78.1644 48.4667 78.3031 48.6773 78.5218 48.832C78.7404 48.9867 79.0124 49.064 79.3378 49.064C79.5618 49.064 79.7591 49.032 79.9298 48.968C80.1058 48.8987 80.2684 48.792 80.4178 48.648L81.0818 49.368C80.6764 49.832 80.0844 50.064 79.3058 50.064C78.8204 50.064 78.3911 49.9707 78.0178 49.784C77.6444 49.592 77.3564 49.328 77.1538 48.992C76.9511 48.656 76.8498 48.2747 76.8498 47.848C76.8498 47.4267 76.9484 47.048 77.1458 46.712C77.3484 46.3707 77.6231 46.1067 77.9698 45.92C78.3218 45.728 78.7138 45.632 79.1458 45.632C79.5671 45.632 79.9484 45.7227 80.2898 45.904C80.6311 46.0853 80.8978 46.3467 81.0898 46.688C81.2871 47.024 81.3858 47.416 81.3858 47.864ZM79.1538 46.576C78.8711 46.576 78.6338 46.656 78.4418 46.816C78.2498 46.976 78.1324 47.1947 78.0898 47.472H80.2098C80.1671 47.2 80.0498 46.984 79.8578 46.824C79.6658 46.6587 79.4311 46.576 79.1538 46.576ZM84.8326 45.632C85.366 45.632 85.7953 45.792 86.1206 46.112C86.4513 46.432 86.6166 46.9067 86.6166 47.536V50H85.3686V47.728C85.3686 47.3867 85.294 47.1333 85.1446 46.968C84.9953 46.7973 84.7793 46.712 84.4966 46.712C84.182 46.712 83.9313 46.8107 83.7446 47.008C83.558 47.2 83.4646 47.488 83.4646 47.872V50H82.2166V45.696H83.4086V46.2C83.574 46.0187 83.7793 45.88 84.0246 45.784C84.27 45.6827 84.5393 45.632 84.8326 45.632ZM90.1015 44.4H91.3975V50H90.1015V44.4ZM95.2545 45.632C95.7878 45.632 96.2172 45.792 96.5425 46.112C96.8732 46.432 97.0385 46.9067 97.0385 47.536V50H95.7905V47.728C95.7905 47.3867 95.7158 47.1333 95.5665 46.968C95.4172 46.7973 95.2012 46.712 94.9185 46.712C94.6038 46.712 94.3532 46.8107 94.1665 47.008C93.9798 47.2 93.8865 47.488 93.8865 47.872V50H92.6385V45.696H93.8305V46.2C93.9958 46.0187 94.2012 45.88 94.4465 45.784C94.6918 45.6827 94.9612 45.632 95.2545 45.632ZM98.1698 45.696H99.4178V50H98.1698V45.696ZM98.7938 45.096C98.5644 45.096 98.3778 45.0293 98.2338 44.896C98.0898 44.7627 98.0178 44.5973 98.0178 44.4C98.0178 44.2027 98.0898 44.0373 98.2338 43.904C98.3778 43.7707 98.5644 43.704 98.7938 43.704C99.0231 43.704 99.2098 43.768 99.3538 43.896C99.4978 44.024 99.5698 44.184 99.5698 44.376C99.5698 44.584 99.4978 44.7573 99.3538 44.896C99.2098 45.0293 99.0231 45.096 98.7938 45.096ZM103.352 49.792C103.229 49.8827 103.077 49.952 102.896 50C102.72 50.0427 102.533 50.064 102.336 50.064C101.824 50.064 101.427 49.9333 101.144 49.672C100.867 49.4107 100.728 49.0267 100.728 48.52V46.752H100.064V45.792H100.728V44.744H101.976V45.792H103.048V46.752H101.976V48.504C101.976 48.6853 102.021 48.8267 102.112 48.928C102.208 49.024 102.341 49.072 102.512 49.072C102.709 49.072 102.877 49.0187 103.016 48.912L103.352 49.792ZM104.053 45.696H105.301V50H104.053V45.696ZM104.677 45.096C104.447 45.096 104.261 45.0293 104.117 44.896C103.973 44.7627 103.901 44.5973 103.901 44.4C103.901 44.2027 103.973 44.0373 104.117 43.904C104.261 43.7707 104.447 43.704 104.677 43.704C104.906 43.704 105.093 43.768 105.237 43.896C105.381 44.024 105.453 44.184 105.453 44.376C105.453 44.584 105.381 44.7573 105.237 44.896C105.093 45.0293 104.906 45.096 104.677 45.096ZM108.195 45.632C108.861 45.632 109.373 45.792 109.731 46.112C110.088 46.4267 110.267 46.904 110.267 47.544V50H109.099V49.464C108.864 49.864 108.427 50.064 107.787 50.064C107.456 50.064 107.168 50.008 106.923 49.896C106.683 49.784 106.499 49.6293 106.371 49.432C106.243 49.2347 106.179 49.0107 106.179 48.76C106.179 48.36 106.328 48.0453 106.627 47.816C106.931 47.5867 107.397 47.472 108.027 47.472H109.019C109.019 47.2 108.936 46.992 108.771 46.848C108.605 46.6987 108.357 46.624 108.027 46.624C107.797 46.624 107.571 46.6613 107.347 46.736C107.128 46.8053 106.941 46.9013 106.787 47.024L106.339 46.152C106.573 45.9867 106.853 45.8587 107.179 45.768C107.509 45.6773 107.848 45.632 108.195 45.632ZM108.099 49.224C108.312 49.224 108.501 49.176 108.667 49.08C108.832 48.9787 108.949 48.832 109.019 48.64V48.2H108.163C107.651 48.2 107.395 48.368 107.395 48.704C107.395 48.864 107.456 48.992 107.579 49.088C107.707 49.1787 107.88 49.224 108.099 49.224ZM114.172 49.792C114.05 49.8827 113.898 49.952 113.716 50C113.54 50.0427 113.354 50.064 113.156 50.064C112.644 50.064 112.247 49.9333 111.964 49.672C111.687 49.4107 111.548 49.0267 111.548 48.52V46.752H110.884V45.792H111.548V44.744H112.796V45.792H113.868V46.752H112.796V48.504C112.796 48.6853 112.842 48.8267 112.932 48.928C113.028 49.024 113.162 49.072 113.332 49.072C113.53 49.072 113.698 49.0187 113.836 48.912L114.172 49.792ZM114.873 45.696H116.121V50H114.873V45.696ZM115.497 45.096C115.268 45.096 115.081 45.0293 114.937 44.896C114.793 44.7627 114.721 44.5973 114.721 44.4C114.721 44.2027 114.793 44.0373 114.937 43.904C115.081 43.7707 115.268 43.704 115.497 43.704C115.726 43.704 115.913 43.768 116.057 43.896C116.201 44.024 116.273 44.184 116.273 44.376C116.273 44.584 116.201 44.7573 116.057 44.896C115.913 45.0293 115.726 45.096 115.497 45.096ZM121.551 45.696L119.735 50H118.447L116.639 45.696H117.927L119.119 48.624L120.351 45.696H121.551ZM126.159 47.864C126.159 47.88 126.151 47.992 126.135 48.2H122.879C122.938 48.4667 123.077 48.6773 123.295 48.832C123.514 48.9867 123.786 49.064 124.111 49.064C124.335 49.064 124.533 49.032 124.703 48.968C124.879 48.8987 125.042 48.792 125.191 48.648L125.855 49.368C125.45 49.832 124.858 50.064 124.079 50.064C123.594 50.064 123.165 49.9707 122.791 49.784C122.418 49.592 122.13 49.328 121.927 48.992C121.725 48.656 121.623 48.2747 121.623 47.848C121.623 47.4267 121.722 47.048 121.919 46.712C122.122 46.3707 122.397 46.1067 122.743 45.92C123.095 45.728 123.487 45.632 123.919 45.632C124.341 45.632 124.722 45.7227 125.063 45.904C125.405 46.0853 125.671 46.3467 125.863 46.688C126.061 47.024 126.159 47.416 126.159 47.864ZM123.927 46.576C123.645 46.576 123.407 46.656 123.215 46.816C123.023 46.976 122.906 47.1947 122.863 47.472H124.983C124.941 47.2 124.823 46.984 124.631 46.824C124.439 46.6587 124.205 46.576 123.927 46.576ZM131.768 44.4C132.264 44.4 132.693 44.4827 133.056 44.648C133.424 44.8133 133.706 45.048 133.904 45.352C134.101 45.656 134.2 46.016 134.2 46.432C134.2 46.8427 134.101 47.2027 133.904 47.512C133.706 47.816 133.424 48.0507 133.056 48.216C132.693 48.376 132.264 48.456 131.768 48.456H130.64V50H129.344V44.4H131.768ZM131.696 47.4C132.085 47.4 132.381 47.3173 132.584 47.152C132.786 46.9813 132.888 46.7413 132.888 46.432C132.888 46.1173 132.786 45.8773 132.584 45.712C132.381 45.5413 132.085 45.456 131.696 45.456H130.64V47.4H131.696ZM135.115 44.064H136.363V50H135.115V44.064ZM139.257 45.632C139.924 45.632 140.436 45.792 140.793 46.112C141.151 46.4267 141.329 46.904 141.329 47.544V50H140.161V49.464C139.927 49.864 139.489 50.064 138.849 50.064C138.519 50.064 138.231 50.008 137.985 49.896C137.745 49.784 137.561 49.6293 137.433 49.432C137.305 49.2347 137.241 49.0107 137.241 48.76C137.241 48.36 137.391 48.0453 137.689 47.816C137.993 47.5867 138.46 47.472 139.089 47.472H140.081C140.081 47.2 139.999 46.992 139.833 46.848C139.668 46.6987 139.42 46.624 139.089 46.624C138.86 46.624 138.633 46.6613 138.409 46.736C138.191 46.8053 138.004 46.9013 137.849 47.024L137.401 46.152C137.636 45.9867 137.916 45.8587 138.241 45.768C138.572 45.6773 138.911 45.632 139.257 45.632ZM139.161 49.224C139.375 49.224 139.564 49.176 139.729 49.08C139.895 48.9787 140.012 48.832 140.081 48.64V48.2H139.225C138.713 48.2 138.457 48.368 138.457 48.704C138.457 48.864 138.519 48.992 138.641 49.088C138.769 49.1787 138.943 49.224 139.161 49.224ZM145.235 49.792C145.112 49.8827 144.96 49.952 144.779 50C144.603 50.0427 144.416 50.064 144.219 50.064C143.707 50.064 143.309 49.9333 143.027 49.672C142.749 49.4107 142.611 49.0267 142.611 48.52V46.752H141.947V45.792H142.611V44.744H143.859V45.792H144.931V46.752H143.859V48.504C143.859 48.6853 143.904 48.8267 143.995 48.928C144.091 49.024 144.224 49.072 144.395 49.072C144.592 49.072 144.76 49.0187 144.899 48.912L145.235 49.792ZM147.303 45.792H148.407V46.752H147.335V50H146.087V46.752H145.423V45.792H146.087V45.6C146.087 45.1093 146.231 44.72 146.519 44.432C146.813 44.144 147.223 44 147.751 44C147.938 44 148.114 44.0213 148.279 44.064C148.45 44.1013 148.591 44.1573 148.703 44.232L148.375 45.136C148.231 45.0347 148.063 44.984 147.871 44.984C147.493 44.984 147.303 45.192 147.303 45.608V45.792ZM151.022 50.064C150.569 50.064 150.161 49.9707 149.798 49.784C149.441 49.592 149.161 49.328 148.958 48.992C148.756 48.656 148.654 48.2747 148.654 47.848C148.654 47.4213 148.756 47.04 148.958 46.704C149.161 46.368 149.441 46.1067 149.798 45.92C150.161 45.728 150.569 45.632 151.022 45.632C151.476 45.632 151.881 45.728 152.238 45.92C152.596 46.1067 152.876 46.368 153.078 46.704C153.281 47.04 153.382 47.4213 153.382 47.848C153.382 48.2747 153.281 48.656 153.078 48.992C152.876 49.328 152.596 49.592 152.238 49.784C151.881 49.9707 151.476 50.064 151.022 50.064ZM151.022 49.04C151.342 49.04 151.604 48.9333 151.806 48.72C152.014 48.5013 152.118 48.2107 152.118 47.848C152.118 47.4853 152.014 47.1973 151.806 46.984C151.604 46.7653 151.342 46.656 151.022 46.656C150.702 46.656 150.438 46.7653 150.23 46.984C150.022 47.1973 149.918 47.4853 149.918 47.848C149.918 48.2107 150.022 48.5013 150.23 48.72C150.438 48.9333 150.702 49.04 151.022 49.04ZM155.409 46.264C155.558 46.056 155.758 45.8987 156.009 45.792C156.265 45.6853 156.558 45.632 156.889 45.632V46.784C156.75 46.7733 156.657 46.768 156.609 46.768C156.251 46.768 155.971 46.8693 155.769 47.072C155.566 47.2693 155.465 47.568 155.465 47.968V50H154.217V45.696H155.409V46.264ZM163.143 45.632C163.681 45.632 164.108 45.792 164.423 46.112C164.743 46.4267 164.903 46.9013 164.903 47.536V50H163.655V47.728C163.655 47.3867 163.583 47.1333 163.439 46.968C163.3 46.7973 163.1 46.712 162.839 46.712C162.545 46.712 162.313 46.808 162.143 47C161.972 47.1867 161.887 47.4667 161.887 47.84V50H160.639V47.728C160.639 47.0507 160.367 46.712 159.823 46.712C159.535 46.712 159.305 46.808 159.135 47C158.964 47.1867 158.879 47.4667 158.879 47.84V50H157.631V45.696H158.823V46.192C158.983 46.0107 159.177 45.872 159.407 45.776C159.641 45.68 159.897 45.632 160.175 45.632C160.479 45.632 160.753 45.6933 160.999 45.816C161.244 45.9333 161.441 46.1067 161.591 46.336C161.767 46.112 161.988 45.9387 162.255 45.816C162.527 45.6933 162.823 45.632 163.143 45.632Z" fill="#F3A72E"/>
<defs>
<clipPath id="clip0_7_179">
<rect width="38.8182" height="38.8182" fill="white" transform="translate(21.0909 11.0909)"/>
</clipPath>
</defs>
</svg>
