<svg width="43" height="42" viewBox="0 0 43 42" fill="none" xmlns="http://www.w3.org/2000/svg">
<path opacity="0.5" d="M29.2235 20.3928C28.917 16.4143 25.5613 13.2725 21.4599 13.2725C17.3585 13.2725 14.0028 16.4061 13.6962 20.3928C10.6885 21.4592 8.53424 24.3057 8.53424 27.6525C8.53424 31.91 12.0225 35.3553 16.3145 35.3553C18.2865 35.3553 20.0844 34.6334 21.4599 33.4357C22.8353 34.6334 24.6333 35.3553 26.6053 35.3553C30.9055 35.3553 34.3855 31.9018 34.3855 27.6525C34.3855 24.3057 32.2312 21.451 29.2235 20.3928Z" fill="#2FA84F"/>
<path opacity="0.5" d="M29.2236 20.3928C28.917 16.4143 25.5613 13.2725 21.4599 13.2725C21.4599 17.1115 21.4599 28.4154 21.4599 33.4357C22.8353 34.6334 24.6333 35.3553 26.6053 35.3553C30.9056 35.3553 34.3855 31.9018 34.3855 27.6525C34.3855 24.3057 32.2313 21.451 29.2236 20.3928Z" fill="#2FA84F"/>
<path d="M26.1661 25.2163L25.205 23.4116L22.4873 24.8308V21.853H20.4324V28.5222L17.7148 27.103L16.7619 28.9077L20.4324 30.819V41.9999H22.4873V27.1276L26.1661 25.2163Z" fill="#2FA84F"/>
<path opacity="0.5" d="M7.7471 32.5501C3.09884 32.5501 -0.505417 28.5224 0.0580078 23.9532L1.43343 12.797C1.82285 9.63877 4.53226 7.26807 7.7471 7.26807C10.9619 7.26807 13.6713 9.63877 14.0608 12.797L15.4362 23.9532C15.9913 28.5224 12.3954 32.5501 7.7471 32.5501Z" fill="#2FA84F"/>
<path opacity="0.5" d="M7.74707 32.5501C7.74707 27.4149 7.74707 11.2876 7.74707 7.26807C10.9619 7.26807 13.6713 9.63877 14.0607 12.797L15.4362 23.9532C15.9913 28.5224 12.3953 32.5501 7.74707 32.5501Z" fill="#2FA84F"/>
<path d="M11.4922 23.8627L8.77451 25.2736V20.1057L12.4451 18.1943L11.4922 16.3896L8.77451 17.8088V14.8311H6.71966V21.5412L4.00197 20.1221L3.04083 21.9268L6.71966 23.8381V41.9998H8.77451V27.5705L12.4451 25.6592L11.4922 23.8627Z" fill="#2FA84F"/>
<path d="M33.6812 16.4883C38.2801 16.4883 42.0083 12.7973 42.0083 8.24414C42.0083 3.69103 38.2801 0 33.6812 0C29.0823 0 25.3541 3.69103 25.3541 8.24414C25.3541 12.7973 29.0823 16.4883 33.6812 16.4883Z" fill="#369151"/>
<path opacity="0.8" d="M33.6812 14.9545C37.4244 14.9545 40.4589 11.9503 40.4589 8.24434C40.4589 4.53842 37.4244 1.53418 33.6812 1.53418C29.938 1.53418 26.9036 4.53842 26.9036 8.24434C26.9036 11.9503 29.938 14.9545 33.6812 14.9545Z" fill="white"/>
<path d="M32.4632 11.7552L29.1904 8.51494L30.5824 7.13682L32.4632 8.99892L36.7717 4.7251L38.1637 6.10322L32.4632 11.7552Z" fill="#2FA84F"/>
</svg>
