<svg width="17" height="17" viewBox="0 0 17 17" fill="none" xmlns="http://www.w3.org/2000/svg">
<path d="M8.32708 16.4883C12.926 16.4883 16.6542 12.7973 16.6542 8.24414C16.6542 3.69103 12.926 0 8.32708 0C3.72816 0 0 3.69103 0 8.24414C0 12.7973 3.72816 16.4883 8.32708 16.4883Z" fill="#369151"/>
<path opacity="0.8" d="M8.32711 14.9545C12.0703 14.9545 15.1048 11.9503 15.1048 8.24434C15.1048 4.53842 12.0703 1.53418 8.32711 1.53418C4.5839 1.53418 1.54944 4.53842 1.54944 8.24434C1.54944 11.9503 4.5839 14.9545 8.32711 14.9545Z" fill="white"/>
<path d="M7.10908 11.7552L3.83624 8.51494L5.22824 7.13682L7.10908 8.99892L11.4176 4.7251L12.8096 6.10322L7.10908 11.7552Z" fill="#2FA84F"/>
</svg>
