<svg width="41" height="41" viewBox="0 0 41 41" fill="none" xmlns="http://www.w3.org/2000/svg">
<path d="M33.2954 9.51538C34.2092 10.6917 34.8555 12.053 35.1895 13.5046C35.5235 14.9561 35.537 16.4631 35.2292 17.9204C34.9214 19.3778 34.2996 20.7505 33.4071 21.943C32.5146 23.1356 31.3729 24.1192 30.0615 24.8255C28.9528 25.4251 27.6186 25.0561 26.7268 24.166L16.8356 14.2731C15.9438 13.3813 15.5748 12.0471 16.1728 10.9384C16.879 9.62673 17.8627 8.48479 19.0553 7.59213C20.248 6.69947 21.6209 6.07756 23.0785 5.76971C24.5361 5.46187 26.0432 5.4755 27.495 5.80966C28.9468 6.14381 30.3082 6.79046 31.4845 7.70454L35.3966 3.79246C35.5148 3.67003 35.6561 3.57236 35.8124 3.50514C35.9687 3.43791 36.1368 3.40249 36.3069 3.40093C36.477 3.39937 36.6457 3.43171 36.8032 3.49606C36.9607 3.56041 37.1038 3.65548 37.2242 3.77572C37.3445 3.89596 37.4397 4.03897 37.5042 4.1964C37.5687 4.35383 37.6012 4.52253 37.5998 4.69265C37.5984 4.86278 37.5632 5.03092 37.4961 5.18727C37.429 5.34362 37.3315 5.48504 37.2092 5.60329L33.2971 9.51538H33.2954ZM29.8497 21.923C30.7227 21.2588 31.4435 20.4155 31.9637 19.4497C32.4838 18.4839 32.7912 17.4179 32.8652 16.3234C32.9393 15.2289 32.7782 14.1313 32.3929 13.1042C32.0075 12.0772 31.4068 11.1444 30.6312 10.3688C29.8555 9.59308 28.9228 8.99239 27.8957 8.60705C26.8686 8.22171 25.771 8.06064 24.6765 8.13467C23.582 8.2087 22.5161 8.5161 21.5502 9.03624C20.5844 9.55637 19.7411 10.2772 19.0769 11.1503C18.6225 11.7465 18.7592 12.5733 19.2905 13.1029L27.8953 21.7095C28.4249 22.239 29.2535 22.3774 29.8497 21.923V21.923ZM5.60329 37.2075L9.51538 33.2954C10.6917 34.2092 12.053 34.8555 13.5046 35.1895C14.9561 35.5235 16.4631 35.537 17.9204 35.2292C19.3778 34.9214 20.7505 34.2996 21.943 33.4071C23.1356 32.5146 24.1192 31.3729 24.8255 30.0615C25.4251 28.9528 25.0561 27.6186 24.1643 26.7268L14.2731 16.8356C13.3813 15.9438 12.0471 15.5748 10.9384 16.1728C9.62673 16.879 8.48479 17.8627 7.59213 19.0553C6.69947 20.248 6.07756 21.6209 5.76971 23.0785C5.46187 24.5361 5.4755 26.0432 5.80966 27.495C6.14381 28.9468 6.79046 30.3082 7.70454 31.4845L3.79246 35.3966C3.67003 35.5148 3.57236 35.6561 3.50514 35.8124C3.43791 35.9687 3.40249 36.1368 3.40093 36.3069C3.39937 36.477 3.43171 36.6457 3.49606 36.8032C3.56041 36.9607 3.65548 37.1038 3.77572 37.2242C3.89596 37.3445 4.03897 37.4397 4.1964 37.5042C4.35383 37.5687 4.52253 37.6012 4.69265 37.5998C4.86278 37.5984 5.03092 37.5632 5.18727 37.4961C5.34362 37.429 5.48504 37.3315 5.60329 37.2092V37.2075ZM13.1029 19.2905L21.7095 27.897C22.239 28.4266 22.3757 29.2535 21.923 29.8497C21.2588 30.7227 20.4155 31.4435 19.4497 31.9637C18.4839 32.4838 17.4179 32.7912 16.3234 32.8652C15.2289 32.9393 14.1313 32.7782 13.1042 32.3929C12.0772 32.0075 11.1444 31.4068 10.3688 30.6312C9.59308 29.8555 8.99239 28.9228 8.60705 27.8957C8.22171 26.8686 8.06064 25.771 8.13467 24.6765C8.2087 23.582 8.5161 22.5161 9.03624 21.5502C9.55637 20.5844 10.2772 19.7411 11.1503 19.0769C11.7465 18.6225 12.5733 18.7592 13.1029 19.2905Z" fill="black"/>
</svg>
