<?xml version="1.0" encoding="utf-8"?>
<svg id="master-artboard" viewBox="0 0 841.9 595.3" version="1.1" xmlns="http://www.w3.org/2000/svg" x="0px" y="0px" width="841.9000244140625px" height="595.2999877929688px" enable-background="new 0 0 841.9 595.3"><rect id="ee-background" x="0" y="0" width="841.9000244140625" height="595.2999877929688" style="fill: white; fill-opacity: 0; pointer-events: none;"/>
<path d="M 0 0 H 841.900024 V 595.299988 H 0 V 0 Z" fill="#FFFFFF" transform="matrix(0.9999999999999999, 0, 0, 0.9999999999999999, -2.842170943040401e-14, 0)" style="stroke: rgb(0, 0, 0); stroke-width: 0;"/><path fill="#00AEEF" d="M669.1,216c3.5-5,3.4-13.9-0.2-23.8c-3.5-9.5-8.7-10.9-11.6-10.9c-4.1,0-7.5,2.7-8.9,5.3&#10;&#9;&#9;&#9;c-6.4,11.4-8.2,20.1-5.5,25.9c1.8,3.9,5.7,6.5,11.5,7.6c1.7,0.3,3.3,0.5,4.8,0.5c0,0,0,0,0,0C663.6,220.6,666.9,219.1,669.1,216z&#10;&#9;&#9;&#9; M659.1,219.6C659.1,219.6,659.1,219.6,659.1,219.6c-1.4,0-2.9-0.2-4.6-0.5c-5.5-1.1-9.1-3.5-10.8-7.1c-2.5-5.5-0.7-13.9,5.5-25&#10;&#9;&#9;&#9;c1.3-2.3,4.3-4.7,8-4.7c4.4,0,8.2,3.6,10.6,10.3c3.5,9.6,3.6,18.2,0.3,22.9C666.3,218.2,663.2,219.6,659.1,219.6z" transform="matrix(0.9999999999999999, 0, 0, 0.9999999999999999, -5.684341886080802e-14, 0)"/><path fill="#00AEEF" d="M334.2,464.5C334.2,464.5,334.2,464.5,334.2,464.5c8.1,0,16.7-8,22.9-21.3c4.3-9.2,2.9-14.7,1-17.8&#10;&#9;&#9;&#9;c-2.6-4-7.2-5.5-10.6-5.5c-1.1,0-2.2,0.1-3.2,0.4c-15.6,4.4-24.9,10.5-27.6,17.9c-1.8,5-0.7,10.6,3.4,16.7&#10;&#9;&#9;&#9;C324.1,461.3,328.9,464.5,334.2,464.5z M317.5,438.6c2.6-7.1,11.7-12.9,27-17.3c0.9-0.3,1.9-0.4,3-0.4c3.2,0,7.4,1.3,9.8,5&#10;&#9;&#9;&#9;c1.8,2.8,3.1,8-1,16.8c-6,12.8-14.4,20.7-22,20.7c0,0,0,0,0,0c-4.9,0-9.4-3.1-13.4-9.1C316.9,448.6,315.8,443.3,317.5,438.6z" transform="matrix(0.9999999999999999, 0, 0, 0.9999999999999999, -5.684341886080802e-14, 0)"/><path fill="#00AEEF" d="M392.4,287.8C392.4,287.8,392.4,287.8,392.4,287.8c10.1,0,20.3-5.2,30.2-15.4&#10;&#9;&#9;&#9;c12.4-12.8,16.9-25.3,13.4-37.1c-4.9-16.6-26-30.6-56.4-37.5c-5.6-1.3-10.9-1.9-15.6-1.9c-15.8,0-23.3,7-26.8,12.8&#10;&#9;&#9;&#9;c-5.5,9.2-4.2,20.6-0.7,27.2C354.9,270.3,373.7,287.8,392.4,287.8z M338,209.2c3.4-5.6,10.6-12.3,25.9-12.3&#10;&#9;&#9;&#9;c4.7,0,9.9,0.6,15.4,1.9c30,6.8,50.8,20.6,55.6,36.8c3.4,11.4-1,23.6-13.1,36.1c-9.7,10-19.6,15.1-29.4,15.1c0,0,0,0,0,0&#10;&#9;&#9;&#9;c-18.3,0-36.8-17.3-55.1-51.4C334,229,332.7,218.1,338,209.2z" transform="matrix(0.9999999999999999, 0, 0, 0.9999999999999999, -5.684341886080802e-14, 0)"/><path fill="#00AEEF" d="M395,264.8C395,264.8,395,264.8,395,264.8c5.1,0,10.2-2.6,15.1-7.6c6.2-6.4,8.4-12.7,6.6-18.7&#10;&#9;&#9;&#9;c-2.5-8.3-12.7-15.2-27.5-18.5c-2.7-0.6-5.3-0.9-7.6-0.9c-8,0-11.9,3.6-13.7,6.6c-2.9,4.8-2.2,10.5-0.3,14.1&#10;&#9;&#9;&#9;C376.5,256.3,385.7,264.8,395,264.8z M370.5,227.1c2-3.4,5.9-5.2,11.1-5.2c2.1,0,4.5,0.3,7,0.9c13.5,3.1,23.2,9.4,25.3,16.5&#10;&#9;&#9;&#9;c1.5,4.9-0.5,10.2-5.9,15.8c-4.3,4.5-8.7,6.7-13,6.7c0,0,0,0,0,0c-8.1,0-16.5-7.9-24.8-23.5C368.8,235.5,368.2,230.9,370.5,227.1z&#10;&#9;&#9;&#9;" transform="matrix(0.9999999999999999, 0, 0, 0.9999999999999999, -5.684341886080802e-14, 0)"/><path fill="#00AEEF" d="M688,201c0-30.2-19.5-59.3-35.7-63.4c-2.4-0.6-4.3-0.9-5.9-0.9c-2.3,0-4,0.6-5.1,1.9&#10;&#9;&#9;&#9;c-2.1,2.4-1.7,6.3-1.1,11.4c0.4,3.1,0.8,6.7,0.6,10.4c-0.3,8.4-4.9,12.1-10.6,16.8c-3.2,2.6-6.8,5.5-9.9,9.6&#10;&#9;&#9;&#9;c-5.2,7-8.8,18.7-5,28.9c2.4,6.6,9,15.3,26.7,19.4c7.6,1.8,13.9,2.6,19.3,2.6C684.7,237.7,688,220.1,688,201z M618,214.6&#10;&#9;&#9;&#9;c-3.4-9.2-0.1-19.7,4.6-26.1c2.8-3.8,6.1-6.5,9.3-9.1c5.8-4.7,11.4-9.2,11.7-19c0.2-4-0.3-7.6-0.6-10.9c-0.5-4.1-0.9-7.7,0.4-9&#10;&#9;&#9;&#9;c0.5-0.6,1.5-0.9,2.9-0.9c1.3,0,3.1,0.3,5.2,0.8c15.1,3.8,33.4,31.6,33.4,60.5c0,24.6-6.5,33.8-23.9,33.8&#10;&#9;&#9;&#9;c-5.2,0-11.2-0.8-18.6-2.5C629.4,229.1,621.1,223.2,618,214.6z" transform="matrix(0.9999999999999999, 0, 0, 0.9999999999999999, -5.684341886080802e-14, 0)"/><path fill="#00AEEF" d="M390.2,405.1c6.3,0,14.8-8.8,18.7-17c3.4-7,3.4-13.2,0.1-17.2c-2.3-2.8-4.8-4.2-7.5-4.2&#10;&#9;&#9;&#9;c-2.7,0-5.4,1.4-8,4.1c-5.7,6-9.9,17.8-9.5,26.3C384.4,404.1,388,405.1,390.2,405.1z M395.6,372.8c1.4-1.5,3.5-3.2,5.8-3.2&#10;&#9;&#9;&#9;c1.8,0,3.5,1,5.2,3.1c3.4,4.2,1.2,10.6-0.5,14.1c-3.8,7.9-11.5,15.3-16,15.3c-0.7,0-2.9,0-3.2-5.2&#10;&#9;&#9;&#9;C386.6,389.3,390.5,378.2,395.6,372.8z" transform="matrix(0.9999999999999999, 0, 0, 0.9999999999999999, -5.684341886080802e-14, 0)"/><path fill="#00AEEF" d="M705.3,254.2c9.1-10.5,12.6-25,10.1-42c-6.9-47.1-29.3-64.1-45.7-76.6c-10.1-7.7-18-13.7-18.5-24.1&#10;&#9;&#9;&#9;c-1.1-28-10.4-35-44-46.2c-27.7-9.2-30.6-15.2-37.5-29.6c-1.4-2.9-3-6.1-4.9-9.8c-4-7.6-8.6-11.7-12.8-11.7c-1.8,0-3.5,0.8-5,2.3&#10;&#9;&#9;&#9;c-4.6,4.7-6.9,16.1-6.5,32c0.6,22.3,12.7,36.3,26.8,52.5c9,10.4,19.1,22.1,27.2,37.4c11.2,21.4,9.7,33.7,7.8,49.2&#10;&#9;&#9;&#9;c-1.5,12.5-3.2,26.6,1.3,48.7c4.9,23.6,32.3,35.9,56.8,35.9C679.1,272.2,695.4,265.6,705.3,254.2z M604.6,236.1&#10;&#9;&#9;&#9;c-4.5-21.9-2.8-36-1.3-48.3c1.8-15.1,3.4-28.1-7.9-49.8c-8.1-15.5-18.3-27.2-27.3-37.6c-13.9-16.1-25.9-29.9-26.5-51.8&#10;&#9;&#9;&#9;c-0.4-15.6,1.8-26.8,6.2-31.3c1.3-1.3,2.8-2,4.3-2c3.8,0,8.1,4.1,12,11.2c1.9,3.6,3.5,6.9,4.9,9.8c6.9,14.3,10,20.8,38.1,30.1&#10;&#9;&#9;&#9;c33.1,11,42.2,17.9,43.3,45.3c0.4,10.8,8.6,17,18.9,24.8c16.2,12.3,38.5,29.2,45.3,75.9c2.5,16.9-0.9,30.7-9.9,41.2&#10;&#9;&#9;&#9;c-9.7,11.2-25.8,17.7-44.1,17.7C636.3,271.2,609.3,259.2,604.6,236.1z" transform="matrix(0.9999999999999999, 0, 0, 0.9999999999999999, -5.684341886080802e-14, 0)"/><path fill="#00AEEF" d="M313.1,85c1.1,31.8,2.4,67.9,46.3,85.9c13.3,5.5,25.4,9.3,36.1,12.6c35.7,11.2,59.2,18.5,80,71&#10;&#9;&#9;&#9;c29.2,73.6,64.6,110.9,108.1,113.8c2.2,0.1,4.3,0.2,6.3,0.2c19.2,0,33.3-6.4,39.3-18c7.1-13.9,1.6-33.1-15.7-53.9&#10;&#9;&#9;&#9;c-24.8-30-27.1-51.4-30-78.5c-1.2-11.3-2.5-23-5.4-36.7c-5.9-27.3-20.3-45.9-34.2-63.9C533.6,104.3,524,91.8,518,76.5&#10;&#9;&#9;&#9;c-11.2-28.9-8.3-63.9-6.7-76.5h-3c-1.6,13.2-4.4,48.3,6.9,77.6c6.1,15.7,15.9,28.4,26.3,41.8c13.7,17.8,27.9,36.1,33.7,62.7&#10;&#9;&#9;&#9;c2.9,13.5,4.2,25.1,5.4,36.3c2.8,26.5,5.3,49.4,30.7,80.1c16.4,19.9,21.9,37.9,15.3,50.6c-6,11.7-21.6,17.6-42.7,16.1&#10;&#9;&#9;&#9;c-42.2-2.9-76.7-39.5-105.5-112c-21.3-53.8-45.4-61.3-81.9-72.7c-10.6-3.3-22.7-7.1-35.9-12.5c-42.1-17.3-43.3-52.3-44.4-83.3&#10;&#9;&#9;&#9;c-0.4-10.3-0.7-20-2.5-28.6c-5.1-25-18.3-46.4-25.3-56.4h-3.7c6.4,8.8,20.7,30.9,26.1,57C312.4,65.3,312.8,74.9,313.1,85z" transform="matrix(0.9999999999999999, 0, 0, 0.9999999999999999, -5.684341886080802e-14, 0)"/><path fill="#00AEEF" d="M346.9,73.9c2.9,28.7,6,58.3,41.3,78.8c16.5,9.6,31,14.9,43.8,19.5c21.7,7.9,38.9,14.2,54.7,36.3&#10;&#9;&#9;&#9;c4.4,6.1,8.4,12,12.3,17.8c16.2,23.8,28.5,42,44.1,42c2.7,0,5.4-0.5,8.3-1.7c3.5-1.4,5.9-4.6,7.3-9.5&#10;&#9;&#9;&#9;c7.1-26.4-19.4-96.6-37.6-119.3c-1.1-1.4-2.3-2.9-3.6-4.4c-21-25.9-55.8-68.8-46-133.5h-1c-9.8,65,25.1,108.1,46.2,134.1&#10;&#9;&#9;&#9;c1.2,1.5,2.4,3,3.6,4.4c18.1,22.6,44.4,92.2,37.4,118.4c-1.2,4.6-3.5,7.6-6.7,8.8c-19,7.4-32.5-12.5-51.2-40&#10;&#9;&#9;&#9;c-3.9-5.7-7.9-11.7-12.3-17.8c-16-22.4-33.3-28.7-55.1-36.6c-12.8-4.7-27.3-9.9-43.7-19.5c-34.9-20.3-37.9-49.7-40.8-78.1&#10;&#9;&#9;&#9;c-0.7-7-1.5-14.2-2.7-21.2c-4.3-25.2-13.9-43.9-19-52.5H325c5,8.3,14.8,27.1,19.2,52.7C345.4,59.7,346.2,66.9,346.9,73.9z" transform="matrix(0.9999999999999999, 0, 0, 0.9999999999999999, -5.684341886080802e-14, 0)"/><path fill="#00AEEF" d="M449.7,143l1.6,0.6c8.8,3.3,16.2,5,21.9,5c5,0,8.6-1.3,10.5-4c3.8-5.4,0-15.4-10.5-27.3&#10;&#9;&#9;&#9;C453.1,94.3,434.8,48.3,440.6,0h-1c-5.8,48.5,12.6,94.9,32.9,118.1c9.9,11.4,13.8,21.1,10.4,26c-3.7,5.3-15,4.8-31.2-1.4l-1.6-0.6&#10;&#9;&#9;&#9;c-34.4-13.1-59.2-22.5-65.2-70.2c-4.5-36.3-14.8-61.5-19.7-71.9H364c4.8,10,15.3,35.2,19.8,72C389.9,120.3,416.3,130.3,449.7,143z&#10;&#9;&#9;&#9;" transform="matrix(0.9999999999999999, 0, 0, 0.9999999999999999, -5.684341886080802e-14, 0)"/><path fill="#00AEEF" d="M511,217.3c7.6,13.4,14.8,26,23.7,26c0,0,0,0,0,0c0.5,0,0.9,0,1.4-0.1c1.8-0.3,4-1.5,4.7-5.9&#10;&#9;&#9;&#9;c2.4-16.8-19.3-66.9-34.8-74.2c-2.7-1.3-5.3-1.9-7.6-1.9c-4.2,0-7.4,2.1-9.2,5.9c-3,6.5-1.4,18.3,8.9,30.3&#10;&#9;&#9;&#9;C502.6,202.6,506.9,210.1,511,217.3z M492,168.3c1.2-2.7,3.5-4.1,6.4-4.1c1.9,0,4,0.6,6.3,1.7c14,6.6,35.3,56,33.1,71&#10;&#9;&#9;&#9;c-0.5,3.2-1.7,3.3-2.2,3.4c-0.3,0-0.6,0.1-1,0.1h0c-7.2,0-14.2-12.5-21.1-24.5c-4.2-7.4-8.5-15-13.2-20.4&#10;&#9;&#9;&#9;C491.1,184.5,489.5,173.7,492,168.3z" transform="matrix(0.9999999999999999, 0, 0, 0.9999999999999999, -5.684341886080802e-14, 0)"/><path fill="#00AEEF" d="M294.6,359.1c0.3,0,0.6,0,1,0c12.7-0.6,42.9-30.2,46-42.2c0.7-3-0.3-4.3-1.3-4.9c-1.1-0.6-2.3-1-3.6-1&#10;&#9;&#9;&#9;c-5.8,0-13.3,5.8-21.2,12c-5.1,4-10.4,8.1-15.2,10.6c-11.3,5.8-16,14.6-14.7,20C286.4,357.1,289.7,359.1,294.6,359.1z&#10;&#9;&#9;&#9; M300.7,334.5c4.9-2.5,10.2-6.6,15.3-10.7c7.8-6.1,15.1-11.8,20.6-11.8c1.2,0,2.2,0.3,3.1,0.8c1,0.6,1.3,1.9,0.8,3.8&#10;&#9;&#9;&#9;c-3,11.9-32.6,40.9-45.1,41.5c-5,0.2-8.1-1.5-8.9-4.8C285.3,348.3,289.9,340,300.7,334.5z" transform="matrix(0.9999999999999999, 0, 0, 0.9999999999999999, -5.684341886080802e-14, 0)"/><path fill="#00AEEF" d="M592.5,350.2c3,0.7,4.3-0.3,4.9-1.3c0.6-1.1,1-2.3,1-3.6c0-5.8-5.8-13.3-12-21.2&#10;&#9;&#9;&#9;c-4-5.1-8.1-10.4-10.6-15.2c-5.8-11.3-14.6-16-20-14.7c-3.5,0.9-5.6,4.1-5.6,9c0,0.3,0,0.6,0,1&#10;&#9;&#9;&#9;C550.9,316.8,580.4,347.1,592.5,350.2z M556.1,295.2c5-1.2,13.3,3.4,18.8,14.2c2.5,4.9,6.6,10.2,10.7,15.3&#10;&#9;&#9;&#9;c6.1,7.8,11.8,15.1,11.8,20.6c0,1.2-0.3,2.2-0.8,3.1c-0.6,1-1.9,1.3-3.8,0.8c-11.9-3-40.9-32.6-41.5-45.1&#10;&#9;&#9;&#9;C551,299.2,552.8,296,556.1,295.2z" transform="matrix(0.9999999999999999, 0, 0, 0.9999999999999999, -5.684341886080802e-14, 0)"/><path fill="#00AEEF" d="M626.7,131.3c3.5-0.9,5.6-4.1,5.6-9c0-0.3,0-0.6,0-1c-0.6-12.7-30.2-42.9-42.2-46c-3-0.7-4.3,0.3-4.9,1.3&#10;&#9;&#9;&#9;c-0.6,1.1-1,2.3-1,3.6c0,5.8,5.8,13.3,12,21.2c4,5.1,8.1,10.4,10.6,15.2C612.5,127.8,621.3,132.5,626.7,131.3z M607.6,116.1&#10;&#9;&#9;&#9;c-2.5-4.9-6.6-10.2-10.7-15.3c-6.1-7.8-11.8-15.1-11.8-20.6c0-1.2,0.3-2.2,0.8-3.1c0.6-1,1.9-1.3,3.8-0.8&#10;&#9;&#9;&#9;c11.9,3,40.9,32.6,41.5,45.1c0.2,5-1.5,8.1-4.8,8.9C621.4,131.5,613.1,126.9,607.6,116.1z" transform="matrix(0.9999999999999999, 0, 0, 0.9999999999999999, -5.684341886080802e-14, 0)"/><path fill="#00AEEF" d="M205.1,509.9c-2.9-25.9-5.7-50.4,1.9-58c2-2,4.7-2.7,8.3-2.2c19.1,2.5,36.6,23.8,53.6,44.4&#10;&#9;&#9;&#9;c16.6,20.2,33.8,41.1,53.1,45.1c32.4,6.7,44.4-10.5,73.5-51.9c7.6-10.8,16.2-23.1,26.6-37.1c38.8-52,72.5-43.2,111.6-32.9&#10;&#9;&#9;&#9;c11.6,3.1,23.6,6.2,36.5,8.1c34.7,5,63.2-1.6,78.2-17.9c11.3-12.4,14.6-30,9.7-51.1c-10.7-45.1,0.5-48,25.1-54.4&#10;&#9;&#9;&#9;c3.4-0.9,7-1.8,10.8-2.9c17.7-5.2,32.5-17.9,41.7-35.9c10.9-21.4,13.8-49.9,8.2-82.4c-12-69.9-58-100.9-112.4-131.5&#10;&#9;&#9;&#9;C595.1,28.8,586.3,9,584.2,0h-3.1c1.9,9.4,10.5,30.3,48.9,51.9c53.7,30.2,99.1,60.8,110.9,129.4c5.5,31.9,2.8,59.7-7.9,80.5&#10;&#9;&#9;&#9;c-8.8,17.2-23,29.5-39.9,34.4c-3.8,1.1-7.3,2-10.7,2.9c-24.9,6.5-38.6,10-27.2,57.9c4.7,20,1.6,36.8-8.9,48.3&#10;&#9;&#9;&#9;c-14.2,15.6-41.8,21.8-75.5,17c-12.7-1.8-24.6-5-36.2-8c-40.1-10.5-74.8-19.7-114.8,34c-10.5,14.1-19.1,26.4-26.7,37.2&#10;&#9;&#9;&#9;c-29,41.5-39.9,57-70.4,50.7c-18.3-3.7-35.1-24.2-51.4-44.1c-17.3-21-35.2-42.8-55.5-45.5c-4.5-0.6-8.1,0.4-10.8,3.1&#10;&#9;&#9;&#9;c-8.7,8.5-6,32.6-2.8,60.4c3.6,31.9,7.7,67.8-5.3,85h3.7C212.7,576.5,208.7,541.4,205.1,509.9z" transform="matrix(0.9999999999999999, 0, 0, 0.9999999999999999, -5.684341886080802e-14, 0)"/><path fill="#00AEEF" d="M36.4,216.3c11.5,17,25.7,38.2,49,38.2c14.7,0,25.6-4.1,36.2-8c14.5-5.4,27.1-10.1,46.7-3.2&#10;&#9;&#9;&#9;c12.3,4.4,24.1,12.7,36.6,21.5c18.5,13.1,37.6,26.6,59.1,26.5c3.7,0,7.5-0.4,11.4-1.3c18.6-4.2,31.3-13.5,36.7-26.8&#10;&#9;&#9;&#9;c6.8-16.6,2-38.4-13.9-63.1c-20.9-32.6-18.5-60.8-15.8-90.8c1-12,2.1-24.5,1.8-37.8c-0.8-34.9-16.6-60.4-24.9-71.5h-3.8&#10;&#9;&#9;&#9;c7.5,9.5,24.9,35.4,25.7,71.6c0.3,13.2-0.8,25.5-1.8,37.5c-2.7,30.5-5.2,59.3,16.3,92.7c15.3,23.8,20,44.7,13.7,60.4&#10;&#9;&#9;&#9;c-5,12.3-17,21-34.6,25c-25,5.7-46.9-9.8-68.1-24.8c-12.1-8.5-24.6-17.4-37.3-21.9c-20.7-7.3-34.3-2.2-48.8,3.2&#10;&#9;&#9;&#9;c-10.3,3.9-20.9,7.8-35.1,7.8c-21.7,0-35.4-20.4-46.5-36.9c-6.3-9.4-11.8-17.5-17.9-20.9c-8.7-4.9-16-6.9-21-7.6v3&#10;&#9;&#9;&#9;c4.7,0.8,11.5,2.6,19.5,7.2C24.9,199.3,30.2,207.2,36.4,216.3z" transform="matrix(1, 0, 0, 1, -1.1368683772161603e-13, -2.842170943040401e-14)"/><path fill="#00AEEF" d="M61.3,445.6c20.1-4.8,32.9-18.9,45.2-32.5c11.7-12.9,22.7-25.1,39.2-28.5c12.4-2.5,29.2-1,48.7,0.8&#10;&#9;&#9;&#9;c33.3,3.1,74.7,6.9,109.3-10.1c22.9-11.2,36.3-26.1,43.4-36.6c8.9-13,13.1-26.7,11.3-36.6c-1.4-8.1-6.6-13-14.6-13.8&#10;&#9;&#9;&#9;c-13.6-1.4-24,7.7-35,17.3c-12.1,10.5-24.6,21.3-42.2,19.3c-16.7-1.9-35-10.8-52.7-19.5c-18.6-9.1-37.8-18.5-55.2-19.6&#10;&#9;&#9;&#9;c-11.4-0.8-24.1,2.6-37.5,6.1c-26.4,6.9-53.8,14-72.2-10.3C28.9,255.1,10,247.9,0,246v3.1c9.6,2.1,27.6,9.3,46.5,34.2&#10;&#9;&#9;&#9;c19.7,26,49.3,18.2,75.4,11.4c13.2-3.5,25.7-6.7,36.6-6c16.8,1.1,35.8,10.4,54.1,19.3c17.9,8.8,36.5,17.8,53.7,19.7&#10;&#9;&#9;&#9;c19,2.1,32.6-9.7,44.5-20c10.5-9.1,20.5-17.8,32.8-16.5c8.3,0.9,11.1,6.6,11.9,11.4c3,16.9-13.8,50.7-53.1,70&#10;&#9;&#9;&#9;c-33.9,16.6-74.8,12.8-107.7,9.8c-19.7-1.8-36.8-3.4-49.6-0.8c-17.4,3.6-28.8,16.2-40.8,29.5c-12,13.3-24.4,27-43.7,31.6&#10;&#9;&#9;&#9;c-27.1,6.4-49.8,3.7-60.6,1.6v3c5.9,1.1,15,2.3,26.2,2.3C36.4,449.7,48.4,448.7,61.3,445.6z" transform="matrix(0.9999999999999999, 0, 0, 0.9999999999999999, -5.684341886080802e-14, 0)"/><path fill="#00AEEF" d="M160.9,545.3c-1.7-16.4-3.6-34.9-0.8-54.4c4.8-33.9,3.8-50.4-3.6-58.9c-3.9-4.5-9.7-6.6-17.8-6.6&#10;&#9;&#9;&#9;c-12.9,0-23.5,10.7-35.8,23.1c-9.7,9.7-20.7,20.8-33.9,27c-22.1,10.4-54.8,9.1-68.9,8v3c14.5,1.2,47.3,2.4,70.2-8.3&#10;&#9;&#9;&#9;c13.7-6.4,24.9-17.7,34.8-27.6c11.8-11.9,22.1-22.2,33.7-22.2c7.3,0,12.2,1.8,15.5,5.6c6.6,7.6,7.5,24,2.9,56.5&#10;&#9;&#9;&#9;c-2.8,19.8-0.9,38.6,0.8,55.1c2.1,20.8,3.9,37.7-3.9,49.7h3.5C164.7,582.4,162.9,565,160.9,545.3z" transform="matrix(0.9999999999999999, 0, 0, 0.9999999999999999, -5.684341886080802e-14, 0)"/><path fill="#00AEEF" d="M139,480.9c-1.9-10.1-5.3-15.9-9.8-16.8c-12.7-2.5-27,12.4-42.1,28.2c-9.4,9.8-19,19.9-28.5,25.8&#10;&#9;&#9;&#9;C40.7,529.2,13,532.2,0,532.9v1c13.1-0.8,41-3.7,59.2-15.1c9.5-6,19.3-16.1,28.7-26c14.9-15.6,29-30.3,41.1-27.9&#10;&#9;&#9;&#9;c4.1,0.8,7.2,6.4,9,16c5.8,31.6-3.8,92.2-25.8,114.2h1.4C136.5,571.4,144.2,508.9,139,480.9z" transform="matrix(0.9999999999999999, 0, 0, 0.9999999999999999, -5.684341886080802e-14, 0)"/><path fill="#00AEEF" d="M119.6,526.7c-0.1-7-2-11.7-5.5-13.5c-9.8-5.1-12.5-2.1-21.4,7.7c-5.3,5.8-13.2,14.5-26.5,25.7&#10;&#9;&#9;&#9;C40.4,568,12.8,574.9,0,577v1c12.8-2.1,40.8-9,66.8-30.7c13.3-11.2,21.3-20,26.6-25.8c8.9-9.8,11.1-12.1,20.2-7.4&#10;&#9;&#9;&#9;c3.1,1.6,4.9,6,5,12.6c0.3,18.5-12.6,53.2-30.1,68.6H90C107.2,579.3,119.9,545.1,119.6,526.7z" transform="matrix(0.9999999999999999, 0, 0, 0.9999999999999999, -5.684341886080802e-14, 0)"/><path fill="#00AEEF" d="M285.5,467.2c12.8,18.7,24.9,36.4,41.9,36.4c20.6,0,40.8-23.8,64.3-51.4c15.8-18.6,32.1-37.7,50-51.2&#10;&#9;&#9;&#9;c12-9,25.8-13.4,42.2-13.4c18,0,35.2,5.3,49,9.6c8.8,2.7,15.8,4.9,20.5,4.9h0c2.3,0,4.1-0.5,5.3-1.6c1.4-1.2,2-2.9,2-5.2&#10;&#9;&#9;&#9;c0-11.1-12.8-21.5-29-34.6c-12.2-9.9-26.1-21.2-37.8-35.3c-14.5-17.6-20.2-35.5-24.4-48.6c-3.7-11.7-6.2-19.4-12.7-20.3&#10;&#9;&#9;&#9;c-0.2,0-0.5,0-0.7,0c-4.8,0-9.2,5.8-15.4,13.9c-10.4,13.7-24.6,32.4-48.7,32.4c0,0,0,0,0,0c-2.1,0-4.3-0.2-6.6-0.4&#10;&#9;&#9;&#9;c-0.6-0.1-1.1-0.1-1.7-0.1c-8.1,0-9.6,8.1-11.8,19.3c-3.3,17-8.2,42.7-38.9,62.4c-18.7,12-44.5,17.6-81.2,17.6&#10;&#9;&#9;&#9;c-12.4,0-24.5-0.6-35.2-1.2c-8.9-0.5-16.5-0.9-23-0.9c-11,0-16.9,1.2-19.7,3.9c-3.8,3.8-3.6,7-2.8,9.1&#10;&#9;&#9;&#9;c3.9,9.6,30.9,15.8,68.7,15.8C258.9,428.4,272.4,448.1,285.5,467.2z M174,411.4c-0.3-0.7-1.1-2.7,2.1-5.9&#10;&#9;&#9;&#9;c2.8-2.7,11.4-3.1,17.6-3.1c6.5,0,14.1,0.4,22.9,0.8c10.7,0.6,22.8,1.2,35.3,1.2c37.2,0,63.6-5.8,82.8-18.1&#10;&#9;&#9;&#9;c31.8-20.4,36.9-46.9,40.2-64.4c2.4-12.3,3.7-17.6,10.1-16.8c2.4,0.3,4.7,0.5,7,0.5c0,0,0,0,0,0c25.6,0,40.4-19.4,51.1-33.6&#10;&#9;&#9;&#9;c5.2-6.8,9.6-12.7,13-12.7c0.1,0,0.2,0,0.4,0c4.7,0.6,7,8,10.3,18.2c4.2,13.3,10,31.6,24.9,49.6c11.9,14.3,25.9,25.7,38.2,35.7&#10;&#9;&#9;&#9;c15.6,12.6,27.9,22.6,27.9,32.3c0,1.4-0.3,2.4-1,2.9c-0.7,0.6-1.8,0.8-3.4,0.8c0,0,0,0,0,0c-4.3,0-11.4-2.2-19.7-4.7&#10;&#9;&#9;&#9;c-14-4.3-31.4-9.7-49.9-9.7c-17.1,0-31.5,4.6-44,14c-18.2,13.7-34.6,33-50.5,51.6c-22,25.9-42.8,50.3-62,50.3&#10;&#9;&#9;&#9;c-15.4,0-27.1-17.1-39.5-35.1c-13.5-19.7-27.5-40.1-48-40.1C198.6,425.4,176.8,418.2,174,411.4z" transform="matrix(0.9999999999999999, 0, 0, 0.9999999999999999, -5.684341886080802e-14, 0)"/><path fill="#00AEEF" d="M50.9,420.3c19-3.6,34.2-16.8,47.7-28.5c9.7-8.4,18.9-16.4,28-19.4c11.9-3.9,31-2.5,51.3-1.1&#10;&#9;&#9;&#9;c17,1.2,34.5,2.5,50.9,1.1c18.9-1.6,31.4-6.8,31.8-13.2c0.3-5.1-6.8-9.6-19.5-12.2c-16.7-3.5-28.7-10.3-40.2-16.9&#10;&#9;&#9;&#9;c-8.7-5-17.7-10.1-28.5-13.6c-9.6-3.1-24.8,0.6-42.5,4.8c-28.9,6.9-61.6,14.8-79.8-4.7c-20.4-21.8-40-31-50.1-34.7v1.1&#10;&#9;&#9;&#9;c10.1,3.7,29.3,12.8,49.4,34.3c18.6,19.9,51.6,11.9,80.7,4.9c16.8-4,32.7-7.8,42-4.8c10.7,3.5,19.7,8.6,28.3,13.5&#10;&#9;&#9;&#9;c11.6,6.6,23.6,13.5,40.5,17c12,2.5,19,6.7,18.7,11.2c-0.3,4.9-9.9,10.5-30.9,12.3c-16.3,1.4-33.9,0.1-50.8-1.1&#10;&#9;&#9;&#9;c-20.3-1.5-39.5-2.8-51.6,1.1c-9.3,3-18.5,11.1-28.3,19.5c-13.4,11.6-28.6,24.7-47.3,28.2c-22,4.1-41-0.2-50.7-3.4v1&#10;&#9;&#9;&#9;c7,2.3,18.5,5,32.4,5C38.2,422,44.4,421.5,50.9,420.3z" transform="matrix(0.9999999999999999, 0, 0, 0.9999999999999999, -5.684341886080802e-14, 0)"/><path fill="#00AEEF" d="M56.1,389.7c11.8-3.2,21-9.3,29.8-15.2c14-9.4,28.6-19.2,54.1-17.3c24.7,1.8,39.1-0.5,42.9-6.9&#10;&#9;&#9;&#9;c1.8-3,1.2-6.7-1.6-11.2c-4.6-7.3-28.9-4.2-56.9-0.5c-16.3,2.1-33.1,4.3-47.4,4.6C48,343.8,14.3,329.8,0,323.1v1.1&#10;&#9;&#9;&#9;c14.3,6.6,46.7,20.1,75.3,20.1c0.6,0,1.2,0,1.8,0c14.3-0.3,31.2-2.5,47.5-4.6c26.5-3.4,51.6-6.7,55.9,0.1&#10;&#9;&#9;&#9;c2.6,4.1,3.1,7.5,1.6,10.1c-3.6,6-17.7,8.2-42,6.4c-25.9-1.9-40.6,7.9-54.8,17.5c-8.8,5.9-17.9,12-29.5,15.1&#10;&#9;&#9;&#9;c-21.6,5.8-44.5,3.3-55.8,1.4v1c6.1,1,15.4,2.2,26.1,2.2C35.5,393.4,45.9,392.5,56.1,389.7z" transform="matrix(0.9999999999999999, 0, 0, 0.9999999999999999, -5.684341886080802e-14, 0)"/><path fill="#00AEEF" d="M59.9,372c0.9-1.1,1.1-2.4,0.5-3.8c-1.9-5-13.1-10.4-24.9-12.2c-16.8-2.5-28.7-6.6-35.6-9.4v1.1&#10;&#9;&#9;&#9;c7,2.9,18.8,6.8,35.4,9.3c11.3,1.7,22.3,7,24.1,11.6c0.4,1,0.3,2-0.4,2.8c-2,2.5-11.9,7.3-59.1,0.2v1c18.1,2.7,30.8,3.7,39.8,3.7&#10;&#9;&#9;&#9;C53.5,376.3,58.3,374,59.9,372z" transform="matrix(0.9999999999999999, 0, 0, 0.9999999999999999, -5.684341886080802e-14, 0)"/><path fill="#00AEEF" d="M330.8,479.9C330.8,479.9,330.8,479.9,330.8,479.9c10.5,0,21.2-7.1,31.6-21.2c6.5-8.8,16.2-18.5,26.5-28.8&#10;&#9;&#9;&#9;c22.1-22.2,45-45.2,40.8-62.9c-4.2-17.6-21.4-30.8-34-30.8c-5.5,0-9.4,2.6-10.8,7.4c-18.2,58-50.6,68.7-76.8,71.6&#10;&#9;&#9;&#9;c-12,1.3-18.4,4.2-20.7,9.1c-2.9,6.4,0.8,16,13.2,34.4C310.1,472.8,320.3,479.9,330.8,479.9z M288.3,424.8&#10;&#9;&#9;&#9;c2.1-4.6,8.4-7.3,19.9-8.6c17.4-1.9,30.8-7,42.5-16c15.5-12,27-30.4,35.1-56.4c1.7-5.5,6.3-6.7,9.9-6.7c10.8,0,28.6,11.4,33,30&#10;&#9;&#9;&#9;c4.1,17.2-18.6,40-40.5,62c-10.3,10.3-20,20.1-26.5,28.9c-10.2,13.8-20.6,20.8-30.8,20.8c0,0,0,0,0,0c-10.2,0-20.1-7-29.4-20.8&#10;&#9;&#9;&#9;C289.3,440.4,285.5,430.7,288.3,424.8z" transform="matrix(0.9999999999999999, 0, 0, 0.9999999999999999, -5.684341886080802e-14, 0)"/><path fill="#00AEEF" d="M496.3,370.2C496.3,370.2,496.3,370.2,496.3,370.2c12.1,0,14.7-4.4,14.7-8.2c0.2-10.3-6.4-13.9-14.7-18.5&#10;&#9;&#9;&#9;c-7.5-4.2-16.8-9.4-25.4-21.3c-4.7-6.5-7.6-11.4-9.8-15c-3.5-5.8-5.1-8.5-8.6-8.5c-2.2,0-4.6,1.1-9.1,3.2c-1,0.5-2.1,0.9-3.2,1.5&#10;&#9;&#9;&#9;c-3.1,1.4-6.1,2.5-9,3.5c-7.1,2.6-13.3,4.8-15.4,10.1c-1.7,4.4-0.5,10.3,3.8,18.6C429.1,354.1,474.1,370.2,496.3,370.2z&#10;&#9;&#9;&#9; M418.6,318.2c1.6-4.1,6.9-6,13.6-8.4c2.8-1,6-2.2,9.2-3.6c1.2-0.5,2.3-1,3.3-1.5c3.8-1.8,6.3-2.9,7.8-2.9c1.7,0,2.8,1.7,6,7.1&#10;&#9;&#9;&#9;c2.2,3.6,5.2,8.6,9.9,15.2c8.9,12.5,18.6,17.8,26.3,22.1c8,4.5,13.3,7.4,13.2,15.9c-0.1,4.6-7.4,5.2-11.7,5.2c0,0,0,0,0,0&#10;&#9;&#9;&#9;c-21.4,0-65.2-15.9-74-32.9C418.4,326.9,417.2,321.6,418.6,318.2z" transform="matrix(0.9999999999999999, 0, 0, 0.9999999999999999, -5.684341886080802e-14, 0)"/><path fill="#00AEEF" d="M34.2,175.2c11.9,12.9,24.1,26.3,42.7,32.5c19.8,6.6,34,5.2,49,3.8c12.4-1.2,25.3-2.4,41.7,1.3&#10;&#9;&#9;&#9;c14.4,3.3,31.2,15.5,47.5,27.3c19.1,13.9,37.5,27.1,52.2,27.1c4.2,0,8.1-1.1,11.6-3.5c17.6-12.1,8-29-3.1-48.6&#10;&#9;&#9;&#9;c-6-10.7-12.3-21.7-15.2-33.3c-4.8-19.3-3.3-36.7-1.6-56.8c1.3-14.7,2.6-29.9,1.6-47.9c-1.7-33.2-24.8-64.7-34.9-77h-1.3&#10;&#9;&#9;&#9;c9.7,11.7,33.4,43.5,35.2,77c0.9,17.9-0.4,33.1-1.6,47.7c-1.7,20.2-3.2,37.7,1.6,57.2c2.9,11.8,9.2,22.9,15.3,33.6&#10;&#9;&#9;&#9;c10.9,19.2,20.3,35.8,3.4,47.3c-3.3,2.3-7,3.3-11,3.3c-14.4,0-32.6-13.2-51.6-26.9c-16.4-11.8-33.3-24.1-47.9-27.4&#10;&#9;&#9;&#9;c-16.5-3.8-29.5-2.5-42-1.3c-14.9,1.4-29,2.8-48.6-3.7c-18.3-6.1-30.5-19.4-42.3-32.2c-10.1-11-20.5-22.3-35-29.6v1.1&#10;&#9;&#9;&#9;C14,153.2,24.3,164.3,34.2,175.2z" transform="matrix(0.9999999999999999, 0, 0, 0.9999999999999999, -5.684341886080802e-14, 0)"/><path fill="#00AEEF" d="M70.7,153.6c19.3,30.5,41.2,31.1,64.3,31.8c8.6,0.2,17.5,0.5,26.4,2.3c14.5,3,29.1,12,42.1,19.9&#10;&#9;&#9;&#9;c13,8,24.5,15.1,33.7,15.1c2.6,0,5-0.6,7.2-1.9c8.1-4.8,4.1-13.8-2-27.4c-7.4-16.5-18.5-41.5-15.1-75.7&#10;&#9;&#9;&#9;C233.1,58.1,219,27.4,193.7,0h-1.4c25.5,27.4,39.8,57.9,34,117.7c-3.4,34.5,7.8,59.6,15.2,76.3c6,13.6,9.7,21.8,2.4,26.1&#10;&#9;&#9;&#9;c-9.3,5.5-23.5-3.2-39.8-13.2c-13-8-27.8-17-42.4-20.1c-9-1.9-17.9-2.1-26.6-2.4c-22.8-0.7-44.4-1.3-63.5-31.3&#10;&#9;&#9;&#9;C51.1,120.8,15.2,106.7,0,101.9v1C15.2,107.7,50.6,121.8,70.7,153.6z" transform="matrix(0.9999999999999999, 0, 0, 0.9999999999999999, -5.684341886080802e-14, 0)"/><path fill="#00AEEF" d="M76.7,104.7c4.5,6.8,7.8,13.2,10.7,18.8c8.5,16.5,14.2,27.5,39,31.3c13.4,2.1,25.6,6.3,36.4,10.1&#10;&#9;&#9;&#9;c11.3,3.9,20.9,7.3,29,7.3c3.5,0,6.8-0.6,9.8-2.1c11.1-5.5,8.9-19.6,5.4-43c-1.8-11.9-4-26.6-5.1-43.9&#10;&#9;&#9;&#9;c-2.4-39.3-30-70.8-42.4-83.1H158c11.9,11.6,40.4,43.4,42.8,83.1c1,17.3,3.3,32.1,5.1,44c3.5,22.9,5.6,36.8-4.8,42&#10;&#9;&#9;&#9;c-9.5,4.7-22.1,0.4-38-5.2c-10.8-3.8-23.1-8-36.6-10.1c-24.3-3.7-29.9-14.5-38.3-30.7c-2.9-5.6-6.2-12-10.7-18.9&#10;&#9;&#9;&#9;C63.6,83,17.8,74.5,0,72v1C17.8,75.5,63,83.9,76.7,104.7z" transform="matrix(0.9999999999999999, 0, 0, 0.9999999999999999, -5.684341886080802e-14, 0)"/><path fill="#00AEEF" d="M111.4,118c7.7,13.1,26.9,23.8,45.2,23.8c5.5,0,10.9-1,15.9-3.1c5-2.2,8.6-6.3,10.5-12.3&#10;&#9;&#9;&#9;c5.8-17.4-3-47.4-14.8-68C155.8,36.8,134.8,11,125.6,0h-1.3c8.9,10.6,30.5,37,43,58.9c11.6,20.4,20.4,50,14.7,67.1&#10;&#9;&#9;&#9;c-1.9,5.7-5.3,9.6-10,11.7c-21.2,9.2-50-3.6-59.8-20.3c-8.2-13.9-34.2-53.2-56-67.3C41,40.3,13.1,33.7,0,31.1v1&#10;&#9;&#9;&#9;c13.1,2.7,40.6,9.1,55.7,18.9C77.3,65,103.2,104.1,111.4,118z" transform="matrix(0.9999999999999999, 0, 0, 0.9999999999999999, -5.684341886080802e-14, 0)"/><path fill="#00AEEF" d="M119.8,82c12.4,16.3,21.8,28.6,30.5,28.6c1.2,0,2.3-0.2,3.4-0.7c1.7-0.7,3.8-2.4,4-6.9&#10;&#9;&#9;&#9;c0.7-10.5-8.7-32.8-23.2-55.6C121.5,26.9,107.1,10.3,93.7,0h-5.1c13.9,9.7,29.4,27.1,43.4,49.1c14,21.9,23.3,44,22.7,53.8&#10;&#9;&#9;&#9;c-0.1,2.4-0.9,3.8-2.1,4.3c-7.7,3-17.7-10.2-30.5-27c-10.5-13.8-23.6-31-39.9-45C53.8,10.6,15.7,6.8,0,6.3v3&#10;&#9;&#9;&#9;c15.4,0.5,52.5,4.2,80.3,28.1C96.3,51.3,109.3,68.3,119.8,82z" transform="matrix(0.9999999999999999, 0, 0, 0.9999999999999999, -5.684341886080802e-14, 0)"/><path fill="#00AEEF" d="M426.9,99.9c0.3,0,0.5-0.1,0.7-0.2c3.5-1.6,1.1-15.5-3.5-39.9c-3.7-19.6-8.2-43.5-8-59.8h-1&#10;&#9;&#9;&#9;c-0.2,16.5,4.3,40.4,8,60c3.6,19.3,7,37.5,4.1,38.8c-0.6,0.3-2.1,0-5.8-4.9c-17.8-22.8-26.3-77-28.5-94h-1&#10;&#9;&#9;&#9;c2.3,16.9,10.8,71.6,28.8,94.6C423.4,98.2,425.4,99.9,426.9,99.9z" transform="matrix(0.9999999999999999, 0, 0, 0.9999999999999999, -5.684341886080802e-14, 0)"/><path fill="#00AEEF" d="M227.2,532.2c-6.7-38.5-0.3-45.6,2.8-46.8c4.3-1.7,10.8,3.4,17.9,14c12.2,18.2,52.7,73.1,96.5,73.1&#10;&#9;&#9;&#9;c4.3,0,8.6-0.5,13-1.7c27.8-7.3,49.5-44.3,68.6-77c12.9-22.1,25.1-42.9,37.3-51.1c15-10.2,41.9-4.3,73,2.5&#10;&#9;&#9;&#9;c30.3,6.7,64.7,14.2,94.5,7.6c25.3-5.6,41.4-21.2,47.8-46.4c5.4-21.1,3-44.7,1.4-60.3l-0.2-2.5c-1.5-15,11.8-20.5,28.7-27.4&#10;&#9;&#9;&#9;c17.2-7.1,36.8-15.1,47.5-35.6c22.9-43.7,25.1-93.8,6.1-137.7c-11.4-26.2-12.7-45-4.2-59.4c10.9-18.5,38.4-30,83.9-35.1v-1&#10;&#9;&#9;&#9;C796,52.6,768.2,64.3,757.1,83c-8.7,14.7-7.4,33.9,4.1,60.3c18.9,43.6,16.7,93.4-6.1,136.8c-10.6,20.2-29.9,28.1-47,35.1&#10;&#9;&#9;&#9;c-16.6,6.8-30.9,12.7-29.3,28.4l0.2,2.5c1.6,15.5,3.9,39-1.4,59.9c-6.3,24.8-22.1,40.2-47.1,45.7c-29.6,6.5-63.9-1-94.1-7.6&#10;&#9;&#9;&#9;c-31.3-6.9-58.4-12.8-73.8-2.4c-12.3,8.4-24.6,29.3-37.6,51.4c-19,32.5-40.6,69.3-68,76.5c-48,12.6-95.2-51.1-108.5-71&#10;&#9;&#9;&#9;c-7.5-11.2-14.3-16.3-19.1-14.3c-7.1,2.8-8.3,19.9-3.4,47.9c6.3,36.2,6.3,54.9,5.7,62.9h1C233.6,587.2,233.6,568.6,227.2,532.2z" transform="matrix(0.9999999999999999, 0, 0, 0.9999999999999999, -5.684341886080802e-14, 0)"/><path fill="#00AEEF" d="M650.5,38.8c14.3,7.5,24.8,15.2,33.2,21.4c11.6,8.6,19.9,14.7,30,14.7c3.8,0,7.9-0.9,12.5-2.9&#10;&#9;&#9;&#9;c6.9-3,12.8-7.6,19.7-13.1c17.8-14.1,39.8-31.6,95.9-32.3v-1c-56.5,0.8-79.5,19-96.5,32.5c-6.8,5.4-12.6,10-19.5,12.9&#10;&#9;&#9;&#9;c-16.2,6.9-25.8-0.1-41.6-11.7c-8.5-6.2-19-14-33.4-21.5C622.6,23,615.3,7.7,613.5,0h-1.1C614,7.8,621.2,23.4,650.5,38.8z" transform="matrix(0.9999999999999999, 0, 0, 0.9999999999999999, -5.684341886080802e-14, 0)"/><path fill="#00AEEF" d="M677.7,30.5c14.7,7.4,27,12,38.5,12c10.2,0,19.8-3.6,30-12.2c9.4-7.9,27.8-11.8,45.7-15.6&#10;&#9;&#9;&#9;C809.6,11,826.5,7.4,834.8,0h-5c-8.6,5.5-23.7,8.7-38.5,11.8c-18.2,3.9-37,7.9-47,16.2c-20.5,17.2-38,13.4-65.3-0.2&#10;&#9;&#9;&#9;C660,18.4,657.3,6.4,657.4,0h-2.9C654.5,7.3,657.6,20.5,677.7,30.5z" transform="matrix(0.9999999999999999, 0, 0, 0.9999999999999999, -5.684341886080802e-14, 0)"/><path fill="#00AEEF" d="M715.7,24.6c16.9,0,31.5-16.3,37.9-24.6h-1.3c-6.5,8.4-20.5,23.6-36.6,23.6c-16.1,0-28.8-15.3-34.6-23.6&#10;&#9;&#9;&#9;h-1.2C685.6,8.4,698.8,24.6,715.7,24.6z" transform="matrix(0.9999999999999999, 0, 0, 0.9999999999999999, -5.684341886080802e-14, 0)"/><path fill="#00AEEF" d="M270.1,551.3c-9.3-9.5-15.5-15.8-19.6-15.4c-1,0.1-1.9,0.6-2.6,1.6c-6.5,9.2,5,44.3,9.8,57.8h1.1&#10;&#9;&#9;&#9;c-4.6-13.1-16.2-48.4-10-57.2c0.5-0.7,1.1-1.1,1.9-1.2c3.6-0.3,10.3,6.5,18.8,15.1c13.2,13.4,32,32.5,56,43.3h2.5&#10;&#9;&#9;&#9;C303,584.7,283.6,565.1,270.1,551.3z" transform="matrix(0.9999999999999999, 0, 0, 0.9999999999999999, -5.684341886080802e-14, 0)"/><path fill="#00AEEF" d="M744.5,508.7c-31.9-28-78.7-24-112.9-21c-3.2,0.3-6.4,0.5-9.4,0.8c-27.7,2.1-53.7-7.3-76.6-15.6&#10;&#9;&#9;&#9;c-20.7-7.5-38.5-14-52.8-10.3c-26.8,6.9-40.3,35.9-54.6,66.7c-1.8,3.9-3.7,8-5.6,11.9c-12.4,25.9-33.9,46-43.4,54.1h4.6&#10;&#9;&#9;&#9;c10.6-9.4,29.9-28.6,41.5-52.8c1.9-4,3.8-8.1,5.6-12c14-30.1,27.3-58.4,52.7-65c13.4-3.5,30.9,2.9,51,10.2&#10;&#9;&#9;&#9;c23.2,8.4,49.5,18,77.9,15.8c3-0.2,6.1-0.5,9.4-0.8c33.6-2.9,79.7-6.8,110.7,20.3c19.7,17.3,31.1,45.6,33.7,84.3h3&#10;&#9;&#9;&#9;C776.6,555.7,764.9,526.6,744.5,508.7z" transform="matrix(0.9999999999999999, 0, 0, 0.9999999999999999, -5.684341886080802e-14, 0)"/><path fill="#00AEEF" d="M641.8,519.5c-9.9,0.4-20,0.8-29.4,0.5c-26.3-0.7-47.4-10-66-18.1c-9.3-4.1-18.1-7.9-26.5-10.3&#10;&#9;&#9;&#9;c-7.4-2.1-14.4-1.3-20.9,2.4c-15.9,9-25.2,33.2-30.2,51.8c-6.3,23.4-24.7,41.4-34.3,49.5h1.5c9.9-8.5,27.5-26.3,33.7-49.3&#10;&#9;&#9;&#9;c5-18.5,14.2-42.4,29.7-51.2c6.2-3.5,13-4.3,20.1-2.3c8.4,2.4,17.2,6.2,26.4,10.3c18.7,8.2,39.9,17.6,66.4,18.2&#10;&#9;&#9;&#9;c9.4,0.2,19.6-0.1,29.5-0.5c31.9-1.2,65-2.4,81.9,16.3c17.3,19.1,20.4,47.2,20.9,58.6h1c-0.5-11.5-3.7-39.9-21.2-59.2&#10;&#9;&#9;&#9;C707.3,517,674,518.2,641.8,519.5z" transform="matrix(0.9999999999999999, 0, 0, 0.9999999999999999, -5.684341886080802e-14, 0)"/><path fill="#00AEEF" d="M686.8,544.2c-12.9-2.8-28.9-2.2-45.7-1.7c-24.4,0.9-52.1,1.8-76.1-7.5c-2.9-1.1-5.6-2.2-8.3-3.3&#10;&#9;&#9;&#9;c-22.8-9-37.8-15-48.9-9.5c-6.7,3.3-11.4,10.6-14.9,23.1c-7.3,25.7-16.8,42.7-21.5,50.1h3.6c5-8.2,13.8-24.7,20.8-49.2&#10;&#9;&#9;&#9;c3.3-11.6,7.5-18.3,13.4-21.2c9.9-4.9,24.5,0.9,46.5,9.6c2.7,1.1,5.4,2.2,8.3,3.3c24.5,9.6,52.6,8.6,77.3,7.7&#10;&#9;&#9;&#9;c16.7-0.6,32.4-1.1,45,1.6c24,5.2,27.6,35.9,28,48.2h3C716.7,582.5,712.8,549.8,686.8,544.2z" transform="matrix(0.9999999999999999, 0, 0, 0.9999999999999999, -5.684341886080802e-14, 0)"/><path fill="#00AEEF" d="M622.9,568.1c-5.3,0-10.8-0.1-16.7-0.2c-31.2-0.5-49.5-9.4-61.6-15.3c-9.7-4.8-15.6-7.6-21.2-2.9&#10;&#9;&#9;&#9;c-9.8,8.1-13.1,34.5-14,45.7h1c1-11.1,4.4-37.2,13.7-44.9c5.1-4.3,10.8-1.5,20.1,3.1c12.2,5.9,30.6,14.9,62,15.5&#10;&#9;&#9;&#9;c5.9,0.1,11.4,0.1,16.7,0.2c29.4,0.2,48.8,0.4,57.5,9.7c3.6,3.8,5.4,9.1,5.6,16.5h1c-0.2-7.6-2.1-13.2-5.9-17.2&#10;&#9;&#9;&#9;C672.1,568.4,652.6,568.3,622.9,568.1z" transform="matrix(0.9999999999999999, 0, 0, 0.9999999999999999, -5.684341886080802e-14, 0)"/><path fill="#00AEEF" d="M659.5,590.2c-3.7-3-9.7-2.3-19.8-1.1c-6.5,0.7-14.6,1.6-24.6,1.8c-24.3,0.5-38.9-3-50.6-5.9&#10;&#9;&#9;&#9;c-5.2-1.3-9.6-2.3-14.2-3c-4-0.5-7,0.3-9,2.6c-2.6,2.8-3.1,7.2-3,10.7h1c-0.1-3.3,0.3-7.5,2.7-10c1.8-2,4.6-2.7,8.2-2.3&#10;&#9;&#9;&#9;c4.5,0.6,9,1.7,14.1,2.9c11.8,2.9,26.5,6.4,50.9,5.9c10.1-0.2,18.2-1.1,24.7-1.9c9.8-1.1,15.7-1.8,19,0.9c1.2,1,2.1,2.4,2.7,4.3&#10;&#9;&#9;&#9;h1.1C661.9,592.9,660.9,591.3,659.5,590.2z" transform="matrix(0.9999999999999999, 0, 0, 0.9999999999999999, -5.684341886080802e-14, 0)"/><path fill="#00AEEF" d="M717.1,477.2c-17.3-3-32.2-5.6-36.3-14.4c-4.7-10.3,1.7-20.9,9.1-33.3c6.5-10.7,13.8-22.9,14.3-36.6&#10;&#9;&#9;&#9;c0.3-7.1-0.3-13.7-0.9-20c-1.8-19.3-3-33.3,22-43.2l1.6-0.6c32.3-12.7,57.8-22.7,67.9-87.2c5.6-36.2-0.7-63.8-5.7-86&#10;&#9;&#9;&#9;c-4.2-18.4-7.5-32.9-3.5-46.6c7-23.6,41.2-25.9,56.3-25.8v-1c-15.3-0.1-50.1,2.3-57.2,26.5c-4.1,14-0.6,29.4,3.4,47.2&#10;&#9;&#9;&#9;c5,22.1,11.3,49.7,5.7,85.7c-10,63.8-34,73.3-67.2,86.4l-1.6,0.6c-25.7,10.1-24.3,25.2-22.6,44.2c0.6,6.3,1.2,12.8,0.9,19.9&#10;&#9;&#9;&#9;c-0.5,13.5-7.7,25.5-14.2,36.2c-7.6,12.6-14.2,23.4-9.2,34.2c4.3,9.3,19.5,12,37,15c21.3,3.7,45.4,7.9,60.7,24.3&#10;&#9;&#9;&#9;c23.5,25.2,30.3,76.4,32,92.8h1c-1.6-16.3-8.5-68-32.2-93.5C762.8,485.2,737.5,480.8,717.1,477.2z" transform="matrix(0.9999999999999999, 0, 0, 0.9999999999999999, -5.684341886080802e-14, 0)"/><path fill="#00AEEF" d="M817.6,126.5c-6,4.9-9.3,12.2-9.5,21.6c-0.3,11.5,2.8,24.4,6.5,39.3c6.9,27.8,15.4,62.5,0.7,99.3&#10;&#9;&#9;&#9;c-12.5,31.5-29.5,40-44.5,47.5c-11.6,5.8-21.6,10.8-26.9,24.9c-5.1,13.6-6.6,22.6-7.9,30.5c-1.7,10.5-2.9,18.1-12.1,30.9&#10;&#9;&#9;&#9;c-8,11.2-10.5,20.2-7.6,27.6c3.2,8.2,13,14,29.9,17.5l1.6,0.3c28.3,5.9,73.8,15.4,94.1,89.8v-10.2c-8.4-25.4-20.7-45-36.8-58.4&#10;&#9;&#9;&#9;c-19.7-16.4-41.1-20.8-56.7-24.1l-1.6-0.3c-15.6-3.3-24.9-8.5-27.7-15.7c-2.5-6.3,0-14.6,7.3-24.8c9.6-13.3,10.9-21.6,12.6-32.2&#10;&#9;&#9;&#9;c1.3-7.8,2.7-16.6,7.7-29.9c4.9-13,14.4-17.8,25.5-23.3c14.7-7.4,33-16.5,46-49.1c15-37.7,6.4-72.9-0.6-101.2&#10;&#9;&#9;&#9;c-3.6-14.7-6.7-27.4-6.4-38.5c0.3-8.6,3.1-15.1,8.4-19.4c6.7-5.4,16.1-6.3,22.4-6.2v-3C835.1,119.5,825,120.5,817.6,126.5z" transform="matrix(0.9999999999999999, 0, 0, 0.9999999999999999, -5.684341886080802e-14, 0)"/><path fill="#00AEEF" d="M794.6,350.6c-16.5,18.6-26.6,41.1-31.2,52.9c-5.7,14.7-6.8,22.6-3.9,28.1c4.1,7.8,15.9,10.6,37.5,15.9&#10;&#9;&#9;&#9;l5.2,1.3c21.7,5.3,33.4,22.4,39.6,37.4v-2.5c-6.5-14.7-18.3-30.8-39.4-35.9l-5.2-1.3c-21.3-5.2-33-8-36.9-15.4&#10;&#9;&#9;&#9;c-2.8-5.3-1.7-12.9,3.9-27.3c6.8-17.5,31.8-72.9,77.5-81.3v-1C824.8,324.6,808.9,334.3,794.6,350.6z" transform="matrix(0.9999999999999999, 0, 0, 0.9999999999999999, -5.684341886080802e-14, 0)"/><path fill="#00AEEF" d="M799.9,385.7c-7.4,14.4-9.3,24-6.2,30.4c3.4,6.9,12.5,9.5,21.8,11.3c11.7,2.2,20.7,10.5,26.3,17.3v-1.5&#10;&#9;&#9;&#9;c-5.8-6.8-14.6-14.6-26.2-16.8c-12.4-2.4-18.5-5.5-21.1-10.7c-3-6.1-1-15.5,6.2-29.5c10.6-20.8,30.4-30.3,41.1-34.1v-1.1&#10;&#9;&#9;&#9;C831.1,354.7,810.8,364.4,799.9,385.7z" transform="matrix(0.9999999999999999, 0, 0, 0.9999999999999999, -5.684341886080802e-14, 0)"/><path fill="#00AEEF" d="M820.5,401.8c-0.9,9.1,12.7,15.2,21.4,18.1v-1.1c-8.5-2.9-21.2-8.7-20.4-16.9c0.8-8.2,12.4-19.6,20.4-26.6&#10;&#9;&#9;&#9;V374C833.8,380.9,821.3,393,820.5,401.8z" transform="matrix(0.9999999999999999, 0, 0, 0.9999999999999999, -5.684341886080802e-14, 0)"/>
</svg>